<?xml version="1.0" standalone="no"?>
<!DOCTYPE svg PUBLIC "-//W3C//DTD SVG 20010904//EN"
 "http://www.w3.org/TR/2001/REC-SVG-20010904/DTD/svg10.dtd">
<svg version="1.0" xmlns="http://www.w3.org/2000/svg"
 width="128.000000pt" height="128.000000pt" viewBox="0 0 128.000000 128.000000"
 preserveAspectRatio="xMidYMid meet">
<metadata>
Created by potrace 1.16, written by Peter Selinger 2001-2019
</metadata>
<g transform="translate(0.000000,128.000000) scale(0.100000,-0.100000)"
fill="#000000" stroke="none">
<path d="M494 1085 c-49 -24 -129 -75 -178 -112 -177 -135 -185 -163 -106
-394 99 -290 115 -314 267 -387 71 -34 86 -37 163 -37 78 0 92 3 164 38 151
72 162 88 262 374 40 115 54 168 54 209 0 54 -1 57 -57 113 -75 74 -187 153
-287 202 -113 55 -163 54 -282 -6z m240 -60 c103 -53 200 -122 273 -197 l52
-53 -53 -150 c-30 -82 -63 -176 -75 -207 -33 -86 -105 -143 -238 -189 -51 -17
-55 -17 -106 0 -145 50 -204 101 -247 214 -52 135 -110 308 -110 327 0 19 100
117 177 173 46 34 218 127 233 127 3 0 46 -20 94 -45z"/>
<path d="M554 932 c-83 -44 -155 -96 -203 -146 l-35 -36 23 -73 c42 -131 92
-252 114 -275 27 -29 156 -92 187 -92 31 0 160 63 187 92 22 23 72 144 114
275 l23 73 -35 36 c-64 67 -250 185 -291 184 -7 0 -45 -17 -84 -38z m201 -54
c38 -23 93 -64 122 -91 l52 -49 -44 -122 c-65 -185 -74 -199 -146 -235 -79
-39 -119 -39 -198 0 -72 36 -81 50 -146 234 l-44 122 47 46 c48 46 137 107
195 133 44 19 79 11 162 -38z"/>
</g>
</svg>
