<?xml version="1.0" standalone="no"?>
<!DOCTYPE svg PUBLIC "-//W3C//DTD SVG 20010904//EN"
 "http://www.w3.org/TR/2001/REC-SVG-20010904/DTD/svg10.dtd">
<svg version="1.0" xmlns="http://www.w3.org/2000/svg"
 width="128.000000pt" height="128.000000pt" viewBox="0 0 128.000000 128.000000"
 preserveAspectRatio="xMidYMid meet">
<metadata>
Created by potrace 1.16, written by Peter Selinger 2001-2019
</metadata>
<g transform="translate(0.000000,128.000000) scale(0.100000,-0.100000)"
fill="#000000" stroke="none">
<path d="M529 1124 c-38 -7 -60 -36 -70 -90 -5 -26 -15 -55 -23 -63 -7 -9 -25
-51 -39 -93 -23 -70 -33 -85 -100 -150 -94 -93 -130 -163 -135 -264 l-4 -72
53 -42 c80 -64 130 -83 201 -78 l59 4 71 -60 72 -60 91 -4 c119 -5 295 13 315
34 11 11 15 35 14 87 -1 125 -62 219 -177 272 l-48 23 34 26 c18 14 63 41 98
59 35 18 70 44 77 58 33 61 -20 201 -114 300 -76 79 -149 111 -263 114 -47 2
-98 1 -112 -1z m198 -86 c42 -15 74 -37 114 -78 51 -52 119 -164 119 -196 0
-6 -19 -23 -42 -37 l-43 -25 -17 58 c-35 114 -132 189 -275 213 -62 10 -64 11
-58 36 3 14 13 32 22 39 26 19 116 14 180 -10z m-75 -120 c22 -6 62 -31 89
-55 49 -45 105 -142 96 -166 -3 -7 -35 -33 -71 -58 -64 -42 -66 -45 -64 -82 3
-38 4 -39 68 -60 72 -24 111 -50 146 -99 31 -42 57 -110 52 -139 -3 -22 -9
-25 -68 -30 -36 -4 -105 -7 -153 -8 l-89 -1 -66 60 c-107 96 -182 125 -182 70
0 -17 -4 -20 -22 -15 -31 9 -159 95 -165 111 -6 17 38 113 79 170 18 25 54 61
80 80 44 33 49 42 80 134 l32 100 59 0 c33 0 78 -5 99 -12z"/>
</g>
</svg>
