<?xml version="1.0" standalone="no"?>
<!DOCTYPE svg PUBLIC "-//W3C//DTD SVG 20010904//EN"
 "http://www.w3.org/TR/2001/REC-SVG-20010904/DTD/svg10.dtd">
<svg version="1.0" xmlns="http://www.w3.org/2000/svg"
 width="63.000000pt" height="63.000000pt" viewBox="0 0 63.000000 63.000000"
 preserveAspectRatio="xMidYMid meet">
<metadata>
Created by potrace 1.16, written by Peter Selinger 2001-2019
</metadata>
<g transform="translate(0.000000,63.000000) scale(0.100000,-0.100000)"
fill="#000000" stroke="none">
<path d="M292 618 c-7 -7 -12 -27 -12 -44 0 -30 -5 -35 -54 -57 -57 -26 -104
-76 -122 -129 -9 -28 -16 -33 -47 -36 -73 -6 -74 -63 -1 -72 34 -4 40 -9 48
-40 13 -45 91 -123 136 -136 31 -8 36 -14 40 -48 9 -72 70 -72 70 -1 0 31 5
36 54 58 57 26 104 76 122 129 9 28 16 33 47 36 73 6 74 63 1 72 -34 4 -40 9
-48 40 -13 45 -91 123 -136 136 -30 8 -35 14 -38 44 -5 54 -32 76 -60 48z m-9
-188 c3 -14 14 -20 32 -20 18 0 29 6 32 20 8 29 20 25 64 -19 44 -44 48 -56
19 -64 -14 -3 -20 -14 -20 -32 0 -18 6 -29 20 -32 27 -7 25 -16 -10 -56 -37
-42 -66 -52 -73 -26 -7 26 -57 26 -64 0 -7 -26 -36 -16 -73 26 -35 40 -37 49
-10 56 14 3 20 14 20 32 0 18 -6 29 -20 32 -29 8 -25 20 19 64 44 44 56 48 64
19z"/>
</g>
</svg>
