<?xml version="1.0" standalone="no"?>
<!DOCTYPE svg PUBLIC "-//W3C//DTD SVG 20010904//EN"
 "http://www.w3.org/TR/2001/REC-SVG-20010904/DTD/svg10.dtd">
<svg version="1.0" xmlns="http://www.w3.org/2000/svg"
 width="128.000000pt" height="128.000000pt" viewBox="0 0 128.000000 128.000000"
 preserveAspectRatio="xMidYMid meet">
<metadata>
Created by potrace 1.16, written by Peter Selinger 2001-2019
</metadata>
<g transform="translate(0.000000,128.000000) scale(0.100000,-0.100000)"
fill="#000000" stroke="none">
<path d="M705 1080 c-49 -4 -97 -11 -106 -14 -9 -4 -58 -93 -110 -198 l-94
-192 -65 0 -65 -1 -19 -40 c-25 -50 -32 -135 -16 -175 10 -24 10 -33 0 -45 -7
-9 -13 -40 -13 -71 0 -49 4 -59 34 -90 49 -51 84 -67 136 -61 24 2 52 12 62
21 15 13 23 14 50 5 40 -14 94 -7 153 19 40 18 47 25 52 58 4 22 2 53 -3 71
l-9 32 176 101 c98 56 182 108 188 116 20 25 24 92 16 272 -7 155 -10 176 -27
188 -21 15 -174 17 -340 4z m295 -158 c0 -55 3 -132 6 -173 l7 -75 -213 -122
c-117 -68 -219 -121 -227 -118 -27 11 -24 37 13 98 20 35 46 79 58 98 l21 35
-30 -19 c-17 -11 -61 -41 -99 -68 -68 -47 -71 -48 -88 -30 -18 17 -15 25 89
240 l107 221 81 4 c44 1 124 4 178 5 l97 2 0 -98z m-574 -394 c55 -51 128
-119 163 -151 l62 -57 -46 -20 c-26 -11 -52 -20 -58 -20 -6 0 -40 28 -76 63
-37 34 -94 88 -128 119 l-61 58 16 50 c9 27 19 50 22 50 3 0 51 -42 106 -92z
m23 -188 c0 -3 -17 -24 -37 -48 l-38 -42 -47 45 c-26 24 -47 48 -47 52 0 4 17
24 37 45 l37 37 47 -42 c26 -23 47 -44 48 -47z"/>
</g>
</svg>
