<?xml version="1.0" standalone="no"?>
<!DOCTYPE svg PUBLIC "-//W3C//DTD SVG 20010904//EN"
 "http://www.w3.org/TR/2001/REC-SVG-20010904/DTD/svg10.dtd">
<svg version="1.0" xmlns="http://www.w3.org/2000/svg"
 width="128.000000pt" height="128.000000pt" viewBox="0 0 128.000000 128.000000"
 preserveAspectRatio="xMidYMid meet">
<metadata>
Created by potrace 1.16, written by Peter Selinger 2001-2019
</metadata>
<g transform="translate(0.000000,128.000000) scale(0.100000,-0.100000)"
fill="#000000" stroke="none">
<path d="M322 967 c-54 -21 -99 -64 -129 -124 -26 -53 -28 -67 -28 -168 0
-100 2 -115 27 -160 31 -59 52 -79 178 -172 52 -38 122 -93 154 -121 56 -50
62 -52 116 -52 54 0 60 2 116 52 32 28 102 83 154 121 126 93 147 113 178 172
25 45 27 60 27 160 0 100 -2 115 -28 167 -53 109 -124 143 -280 136 -73 -3
-101 -9 -130 -26 l-37 -21 -37 22 c-32 18 -55 22 -143 24 -65 2 -117 -2 -138
-10z m228 -77 c37 -19 80 -67 80 -89 0 -6 5 -11 10 -11 6 0 10 5 10 11 0 22
43 70 80 89 47 24 157 27 198 6 86 -45 144 -173 122 -267 -19 -77 -59 -130
-148 -192 -44 -31 -122 -91 -171 -132 l-91 -76 -83 69 c-45 38 -122 99 -172
134 -113 81 -147 131 -153 224 -7 100 36 188 113 235 43 27 152 26 205 -1z"/>
<path d="M422 813 c-41 -20 -68 -57 -83 -114 -25 -92 6 -152 118 -235 43 -31
101 -77 130 -102 l52 -44 73 59 c40 33 100 80 133 104 64 47 105 110 105 162
0 157 -156 242 -265 145 -19 -16 -35 -37 -35 -46 0 -11 -12 -2 -32 22 -52 64
-128 83 -196 49z m151 -47 c18 -7 40 -23 51 -34 l19 -21 27 29 c72 77 198 29
215 -83 9 -57 -12 -106 -60 -143 -21 -16 -71 -55 -111 -87 l-74 -59 -38 34
c-20 18 -66 54 -102 80 -36 25 -73 60 -82 76 -39 66 -12 171 53 204 41 22 60
22 102 4z"/>
</g>
</svg>
