<svg xmlns="http://www.w3.org/2000/svg" version="1.0" viewBox="0 0 560 560">
  <path
    d="M388.5 117.7a7241.9 7241.9 0 0 0-81 3.2c-26.3 1.1-27.6 1.8-34.4 18.1a1511.5 1511.5 0 0 1-34.1 72c-1.7 3-6.7 13.6-11.1 23.5-4.4 9.9-14.1 30.2-21.5 45.2-7.4 15-13.4 28.3-13.4 29.7 0 7.7 5.3 11.9 14.7 11.4 7.4-.5 8-.8 36.5-23.4 28.3-22.4 34.5-26.3 41.4-26.4 9.1 0 6.8 8.2-8 28.3-15.8 21.5-33.4 49.8-34.3 55.2-1.1 7 5.1 13.5 12.8 13.5 6.5 0 7.8-.6 24.1-11.3a418 418 0 0 1 20.3-12.7l16.5-9.5a1914.2 1914.2 0 0 0 81.8-47.3c6.8-4.1 15.9-8.9 20.1-10.7 13.3-5.6 15.7-7.1 17.7-11.2 1.8-3.6 1.9-6.7 1.6-65.8-.1-34.1-.5-65.8-.9-70.4-.8-12.4-.4-12.1-21.5-11.9l-27.3.5zM138.2 296c-1 1.1-2.6 4.6-3.6 7.7-1 3.2-3.1 9.1-4.7 13.1-3.2 8.1-3.6 12.9-1.5 17 1.6 2.9 8.2 9.5 19 18.8 3.9 3.2 10.2 8.8 14.1 12.4l15.8 14a164 164 0 0 1 16 16.3c3.9 4.9 11.5 12.7 16.9 17.3 5.3 4.6 12 11.1 15 14.5 11.2 12.9 17.8 13.1 39.1 1.1 19.4-10.9 19.2-12.9-3.4-28.3a217 217 0 0 1-22.4-18.9c-7.1-6.9-17-16.1-22-20.5a887.8 887.8 0 0 1-21.5-20 732.8 732.8 0 0 0-21.4-20 190 190 0 0 1-14.9-15c-3.2-3.8-7.3-8-9-9.3-3.9-2.8-9-2.9-11.5-.2zm6.1 89.8a92.6 92.6 0 0 0-18.9 20.6c-.3 1.4-.3 3.3 0 4.3.9 2.5 24.2 26.4 29 29.7 4.1 2.8 9.4 3.4 14 1.6 6.3-2.4 16.9-15.7 19.6-24.6 1.8-5.9-.4-10.1-8.1-16.1l-11.1-8.8c-12.5-10.2-13-10.5-16.3-10.5-2.3 0-4.7 1.1-8.2 3.8z" />
</svg>