<svg xmlns="http://www.w3.org/2000/svg" version="1.0" viewBox="0 0 400 408">
  <path d="M180 40A475 475 0 0 0 38 144c-5 6-4 9 8 46l14 40 5 14c12 33 24 65 29 72 6 9 18 20 32 28 19 12 65 31 74 31 11 0 68-26 85-38 20-15 25-23 47-84a3673 3673 0 0 1 12-36c-1-2-22-7-27-7-3 0-4 0-5 3l-10 27c-19 53-22 57-42 70-16 11-55 28-62 27a307 307 0 0 1-63-29c-18-13-20-16-60-131l-5-15 2-3a364 364 0 0 1 118-84l10-5 5 3 14 7 18 9c8 4 9 4 10 3l7-15c4-11 5-15 4-16-2-3-54-29-58-29l-20 8z"/>
  <path d="m280 76-8 31c0 2 1 4 5 6 14 10 48 41 51 47 1 2 1 4-4 18l-5 16c1 2 24 14 27 14l10-25a366 366 0 0 1 12-32l-24-27c-17-17-36-32-54-44-8-5-10-6-10-4zm-95 16a365 365 0 0 0-78 51c0 2 4 3 10 3 3 0 5 0 4 1h3l60 6c13 2 15 2 17-3 3-4 15-11 22-12l7-2 5-12 6-13c2-6 4-5-28-20l-13-5-15 6z"/>
  <path d="m268 125-4 12-3 12 3 7 6 11c2 5 2 5 12 10 13 7 20 9 24 9 2 0 3-1 5-9 4-13 4-13-7-24s-32-29-34-29l-2 1zM95 153c-11 12-11 11-7 22 18 54 33 95 39 105 6 12 14 18 33 28 9 5 18 8 19 8 2-1 4-8 21-83l6-24-2-4-6-8-5-9-1-6-8-4a1312 1312 0 0 0-80-32l-9 7zm166 49c-5 5-12 10-18 12l-6 3-4 8a1453 1453 0 0 0-16 43l-7 18-9 21-4 14c1 2 4 1 19-4 29-9 49-21 56-34 5-9 28-70 28-75l-3-3-6-1-25-5-5 3z"/>
</svg>