<svg xmlns="http://www.w3.org/2000/svg" version="1.0" viewBox="0 0 560 560">
  <path d="M135.4 88.9a268 268 0 0 0-30.9 29.1c-1 3.3 2.3 9.1 9.3 15.9 13.6 13.4 17.3 13.1 38.1-2.9 13.6-10.6 15.4-14.6 10.6-24.7-4.4-9.5-15.4-19.3-21.7-19.3-1.3 0-3.7.8-5.4 1.9zm72 10.7c-2.1 1.4-10 8.5-17.4 15.8-35.1 34.3-53.8 50.6-67.8 58.9-12.7 7.5-18.2 14.2-18.2 22.2 0 1.9 1.6 8.4 3.5 14.4 6.4 19.8 8.7 20.5 23.8 6.9 5.6-5.1 15.9-14.7 22.8-21.4 7-6.6 16.7-15.1 21.5-18.9 4.9-3.8 12.7-10.3 17.4-14.5a893.6 893.6 0 0 1 44.6-36.5 39 39 0 0 0 8.7-8.3c3.2-5.4 1.7-7-13.6-14.6-15.4-7.6-19-8.2-25.3-4zm13.3 62.5c-2.7 1.6-4.7 6.4-4.7 11.3 0 5.8 3.1 11.5 20 37.6 24.5 37.8 25.8 40.4 20.9 43.1-5.8 3.1-18.5-3.6-35.4-18.6a302.4 302.4 0 0 0-39.2-30.6c-1.3-.5-4.2-.9-6.5-.9-3.2 0-4.7.7-7.4 3.4-5.1 5.1-4.7 7.5 4.5 26.6 11.9 24.7 24.5 52.5 32.1 71 3.8 9.1 8.8 21 11.3 26.5l10.5 23.5c13.9 31.5 17.4 36.1 29.2 38.4 19.9 3.8 33.1 6 47 7.6 17.8 2.1 76.1 4.7 80.4 3.6 5.7-1.4 7.6-12.4 7.6-46.2 0-22.2 1.3-54 3.1-73.5 1.2-13.6.3-18.8-3.7-23-1.6-1.7-9.3-6.9-17.1-11.7a4625.9 4625.9 0 0 1-140.4-87.7c-3.2-1.7-9.6-1.9-12.2-.4z"/>
  <path d="M435.5 325.9c-8.4 2.1-9.5 4.6-7.1 17.5a83.8 83.8 0 0 1-2.9 43.1 75.1 75.1 0 0 1-26 29.1c-7.1 4.5-18.5 9.7-24.6 11.2-13.5 3.4-49.7 3.5-76.1.3-4.5-.6-13.4-1.5-19.6-2.1a116 116 0 0 1-19-3.5 201.3 201.3 0 0 1-53.2-30.1 66.3 66.3 0 0 1-15.1-26.9c-2.4-7.4-4.1-10.9-6.6-13.4l-3.4-3.4-20.3.8c-16.7.6-22.4.4-32.1-1-11.5-1.7-11.8-1.7-13.7.3-1.5 1.5-1.9 2.7-1.3 5 1.2 5.9 9.2 11 27.5 17.8 8.1 3 14 7.8 14 11.4 0 4.4-3.6 9.5-15 21.5a287.7 287.7 0 0 0-31.5 38.1c-4.2 8.9-.9 11.2 13.5 9.5a614 614 0 0 1 22.5-2.1c7.2-.6 13.7-1.3 14.5-1.5 2.6-.8 43.9-4.7 55.1-5.2 16.6-.8 20 1.9 21 16.9.7 9.5 2.3 12.8 6.3 12.8 2.1-.1 3.8-1.2 14.7-9.7 3-2.3 10.5-6.9 16.8-10.3 6.3-3.4 12.6-6.9 14-7.9 8.6-5.7 16.2-5.7 31.4.3 6.2 2.5 15.9 5.6 21.7 6.9l21 5c5.8 1.3 13.9 3.9 18 5.7 9.9 4.3 16.2 6 23.3 6 4.8 0 6.2-.4 8.2-2.5 3.1-3 3.1-3.9 0-14.4-3-10.1-3.1-13.3-.6-18.6 3.7-8.1 10.3-11.5 22.6-11.5 7 0 17.7-1.7 28.9-4.6 16.2-4.2 16.4-7.6 1.2-26.9-10.4-13.3-14.6-21.1-14.6-27.2 0-6 1.7-8.8 10-16.2 8.2-7.3 12.3-12.9 11.8-16.3-.2-1.8-1.3-2.6-4.8-3.5-4.9-1.3-25.7-1.5-30.5-.4z"/>
</svg>