<svg xmlns="http://www.w3.org/2000/svg" version="1.0" viewBox="0 0 560 560">
  <path d="M384 101.1c-3.6 1.1-15.5 3.1-26.5 4.4-32.2 4-42.4 5.6-52.5 8.2-5.2 1.3-15.8 3.7-23.5 5.2a81.3 81.3 0 0 0-16.9 4.6c-3.6 2.4-5.9 7-9 18.9-1.5 5.5-5.5 17.6-9.1 27-3.5 9.4-9.1 24.7-12.4 34.1l-13.4 38-13.6 38.3c-3.4 9.5-8 20.7-10.1 24.8-6 11.3-5.3 16.2 2.8 20.3 3.3 1.8 11.4 1.5 15.1-.4 1.8-.9 8.7-6.9 15.4-13.3l25.6-24.8c15.4-14.8 21.6-19.4 27.1-20.1 3.2-.5 4-.2 5 1.7 1.6 3 .1 8-5.5 18.5a1051 1051 0 0 0-31.6 64.7c-1.5 5.3-.8 8.6 2.6 12.6 5 5.9 11.1 5.4 20.2-1.6l18.2-14c6.6-5 16.7-12.1 22.4-15.7a83.3 83.3 0 0 0 16.3-12.8c6.3-6.7 4.7-3.7 35.4-68.7 25.3-53.6 25.2-53.4 33.2-49.2a152 152 0 0 1 10.6 6.7c3.5 2.5 8.1 5 10.3 5.6 7.9 2.4 9-2.8 5-23.6-1.3-6.6-2.8-20.3-3.6-34-2.6-43-5-52.2-14.2-56.1-4.5-2-15.6-1.6-23.3.7zm21.6 141.2a66.7 66.7 0 0 0-7.5 13.8 2083 2083 0 0 1-38.8 78.2c-6.3 11.9-6.8 13.2-6.8 19.2 0 7.5.3 8 16.9 26.6 11.6 13 15.1 19 14 23.6-2.1 8.7-8.5 18.5-24 36.9-16.4 19.6-19.4 24.8-16.1 28.1 2.2 2.3 8 0 17.8-6.8a794.6 794.6 0 0 1 44.6-29.1c15.4-9 39.5-24.3 43.1-27.3 2.1-1.8 3.2-3.6 3.2-5.4 0-4.2-5.2-11.5-15-20.8-9.8-9.4-13-14.6-13-21.2 0-3.6.6-4.8 3.3-7.4 1.8-1.8 6-4.7 9.3-6.5 3.2-1.8 9.2-6.2 13.2-9.7 4-3.6 11.6-9 16.8-12.1 11.4-6.7 15.6-10.2 17.8-14.8 2.3-5 .8-7.4-8.8-14.3-13-9.3-32.1-25.6-46.1-39.3-17.1-16.8-18.5-17.5-23.9-11.7zm-266.1 66.9c-3.2 2.9-5.5 13.2-5.7 25.7-.2 10 .8 12.7 7.4 18.7 4.1 3.7 31.3 21.9 50.3 33.7a85.2 85.2 0 0 1 17.5 14.4c4.7 4.9 12.1 11.6 16.5 15 4.4 3.4 11.3 9.1 15.4 12.7 8.6 7.6 12.6 9.2 19.6 7.6a35.4 35.4 0 0 0 22.1-15.2c5-6.8 5.6-10.4 2.2-13.5-1.3-1.2-6.6-4.4-11.8-7.3a142 142 0 0 1-13.6-8.4l-16-12a688.6 688.6 0 0 1-19.4-15.1c-4.2-3.4-12.1-9.3-17.5-13-5.5-3.8-12.9-9.4-16.5-12.6-3.6-3.1-10.1-8-14.4-10.9-4.3-2.9-11.5-8.6-15.8-12.7-10.7-9.9-15.2-11.5-20.3-7.1zm16.2 84.9a52 52 0 0 0-16.3 19.3c-3.8 8.2-2.9 10.5 7.1 18.4 4.4 3.5 10.6 8.6 13.7 11.3 8.1 7 13.5 9.9 18.6 9.9 3.7 0 4.9-.6 8.7-4.3 2.4-2.3 6.7-8 9.5-12.6 3.9-6.7 5-9.3 5-12.8 0-4.1-.3-4.5-6.2-9.1-3.4-2.6-9.3-7.4-13.1-10.7-8.7-7.6-16.4-12.5-19.7-12.5-1.5 0-4.8 1.4-7.3 3.1z"/>
</svg>