<svg xmlns="http://www.w3.org/2000/svg" version="1.0" viewBox="0 0 560 560">
  <path d="M255 95c-22.2 4-48.8 12.6-64 20.7a188.5 188.5 0 0 0-47.1 35.3c-13.1 13-15 15.4-19.3 23.8a43.1 43.1 0 0 1-7.1 10.8c-4.1 2.7-9.4 2.7-19.5 0-8.4-2.2-9.8-2.3-11.7-1.1-3.4 2.2-3.7 8.2-1.4 23 2 12.3 5.2 58.1 6.7 94.3.8 19.5 1.5 21.3 8 19.2 2.8-.9 7.2-4.6 16-13.4a1976 1976 0 0 1 52.1-49.8c5.7-5.4 14.5-13.1 19.7-17.2 10.7-8.6 14.5-13.2 15.3-18.2 1.3-7.7-6.5-10.9-23.7-9.8-10.1.6-10.9.5-12.8-1.4-7.3-7.3-2.2-17.3 17.4-34.4 16.9-14.8 23.4-19.7 30.9-23.4 10.6-5.2 45-15 55.9-15.8 4.9-.4 10.2-1.4 11.8-2.2 1.5-.8 5.1-4.2 7.9-7.7 2.8-3.4 9.1-10 14-14.7 12-11.6 13-16.2 3.8-18.7a231 231 0 0 0-52.9.7zm94.5 14.2c-5.6 3.1-6.9 9.4-4 20.5a59 59 0 0 1 1.5 12.1c0 3.5.5 7.3 1.1 8.5 1 1.9 9.7 10.9 46.1 47.9 10.6 10.9 12.4 11.2 21.5 4.4 13-9.9 21.3-19.5 21.3-24.7 0-4.1-5.4-11.4-17.3-23.3a258.4 258.4 0 0 0-41.5-33.6c-18.2-12.6-23.5-14.7-28.7-11.8zm-33.8 26.4c-4.6 3.1-17.3 18.9-30.1 37.4a732.6 732.6 0 0 1-25.2 33 653.5 653.5 0 0 0-21.6 27.6c-3.1 4.5-8.6 11.7-12.3 16-8.7 10.4-12.5 16.2-12.5 19.1 0 3.3 4.7 5.8 15.5 8.3 19.8 4.6 32.4 9.7 37 15.2 4.1 4.8 3.2 9.3-4.4 22.1a309 309 0 0 0-11.5 22.3 1695 1695 0 0 1-18.1 37.9c-14.4 29.3-14.9 30.6-13 33.2 2.8 3.7 9.2-1.5 36.4-29.1 43.7-44.2 80.1-79.9 92.9-91.1 16.9-14.8 18.4-18.4 9-21.9-11.8-4.3-31-11-36.5-12.6-12.2-3.6-15-7.8-14-20.9 1.3-16.1 5.7-45.8 8.1-54a228 228 0 0 0 4.5-18.1c1.1-5.2 2.7-11.5 3.5-13.9 2.8-7.6 1.7-13.1-2.4-13.1-.8 0-3.2 1.2-5.3 2.6zm144 104.3c-3.7 1.9-15.5 12.8-53.1 49.1a665.7 665.7 0 0 1-32.7 29.6 108.5 108.5 0 0 0-14.6 13.4c-4.6 6.7-1.8 13.2 6.4 15 2.1.5 9 .7 15.4.3 11.6-.6 11.7-.6 14.3 2 3.1 3.1 3.3 6.4.7 11.8-3.5 7.3-9.4 13.9-21.1 23.8-22.5 19-29.4 23.1-47.3 28.5-36.1 10.9-43.3 11.7-64.6 7.1-10-2.2-14.1-1.1-28.4 7.4-14.8 8.8-17 10.5-19.6 15.2-5 8.8-2.1 13.8 9.3 16.4 3.9.9 10.5 2.7 14.7 4 15.2 4.8 44.8 5.6 65.5 1.9 9-1.6 38.4-9.9 48.4-13.7 21.2-8 46.5-25.2 67.1-45.7 10.6-10.5 12.1-12.4 16.3-21.2a51 51 0 0 1 6.8-11.3c3.5-2.4 9-1.8 18.6 2.1 9.8 4 13.2 4 15.3.2 2-3.7 1.5-12.6-1.3-23.8-2.2-8.6-3.1-16.1-4.8-41.5-1.1-17.1-2.4-39.6-2.9-50.2-.5-13.4-1.1-19.6-2-20.7-1.7-2-1.9-2-6.4.3zM144.2 357.5a84.2 84.2 0 0 0-20.7 20.8c-3 7.2.7 12.6 27.2 38.9 22 21.8 25.8 24.2 33.3 20.3 8.8-4.6 15.2-31 10.1-42-2.3-5-15.6-21-27.6-33.3-11.1-11.3-12.9-11.7-22.3-4.7z"/>
</svg>