<svg xmlns="http://www.w3.org/2000/svg" version="1.0" viewBox="0 0 560 560">
  <path
    d="M288.3 83.9a190.8 190.8 0 0 0-35.1 21 225.6 225.6 0 0 0-38.9 39.5 173 173 0 0 0-11.2 21.5L190 196c-3.9 9.1-8.3 18.5-9.7 21-1.4 2.5-8 9.7-14.5 16.1-9.6 9.4-11.9 12.2-11.6 14 .3 2.2.7 2.4 6 2.2 8.8-.3 23.8-4.7 38.8-11.4 23.1-10.3 34.2-18.4 43.1-31.5 9.4-14 11.9-13.9 29.9.6 5.2 4.2 16.7 12.8 25.5 19.2 20.1 14.6 29.5 23.2 32.9 30 3.6 7.3 3.4 11.9-1.1 20.9-3 6.1-6 9.7-17.2 21-19.6 19.5-28.8 25.3-50.3 31.5-6.8 1.9-14 4.6-16 6-7.7 5-13.4 17.9-12.5 28.4a161 161 0 0 0 9.8 35.1c3.9 7.8 8.9 8.5 16.5 2.6a543.7 543.7 0 0 0 40.4-35.3c24-25.5 74.6-75.5 76.8-76.1 1.3-.3 6.2 0 10.7.7 13.6 2.1 16.3-.7 16.4-17.1.2-16.3-2.4-23.6-15.3-43.3a146 146 0 0 0-17.4-21.8 294.7 294.7 0 0 0-41-34.9c-6.5-4.2-25-12.2-37.1-16a24 24 0 0 1-12.5-8.2c-1.8-2.5-2.1-4.3-2.1-14 0-10.5.2-11.6 3.1-17.7 1.7-3.6 6.1-11.4 9.8-17.4 7-11.5 8.1-15.7 4.7-17.6-2.4-1.2-1.5-1.3-7.8.9z" />
  <path
    d="M250.3 231.2c-1.1 1.3-3 5.2-4.3 8.8a61.2 61.2 0 0 1-10.9 20.4c-10.5 12.5-23.2 18.7-46.3 22.7-13.2 2.2-44.6 4-56.3 3.2-8.5-.6-15.1.9-16 3.7-.4 1.1.7 7.5 2.4 14.3 1.7 6.7 4.2 17.6 5.7 24.2 1.4 6.6 3.7 14.8 5 18.3 3.1 8.3 12.1 23.4 17.5 29.6a122 122 0 0 0 45.1 29.5c4.6 1.5 12.9 5.1 18.4 8 11.8 5.9 15.5 6.9 17.3 4.7 2.2-2.6-1.7-9-15.8-26.1-20.2-24.4-28.5-39.9-25.3-47 1.5-3.2 6.5-6.8 14.7-10.3a218.8 218.8 0 0 0 68-41.4c9.5-10.2 11.6-20.7 7-34.4-4.7-14-11.3-24.5-17.9-28.5-4-2.5-5.8-2.4-8.3.3zm127.1 91.2c-1.6.7-12.2 10.5-23.5 21.8a984.7 984.7 0 0 1-28.8 27.8c-10.9 9.6-16.1 16.2-16.1 20.4 0 4.7 2.9 6.9 9.8 7.4 11.8.8 22.9-6.4 44.7-29 18-18.6 19.7-18.5 39 3.1a94.4 94.4 0 0 0 26.6 22.8c4.3 2.1 7.1 2.7 14.9 3.1 8.1.4 9.9.2 11.3-1.2 4.6-4.6 1.8-8.7-19.4-28.3a485.7 485.7 0 0 1-36.8-36.8c-6.9-7.7-13.3-12.5-16.5-12.5-1.2.1-3.5.7-5.2 1.4z" />
  <path
    d="M359.7 404.6a351.7 351.7 0 0 1-26.2 24.7c-18.8 14.7-24.6 21.9-24.8 30.5 0 5.7 1.8 7.2 8.8 7.2 13.2 0 25.1-7.3 41.6-25.3 22.7-24.9 23.5-25.1 35.8-9.8 16.2 20.2 31.2 30.9 46.4 33.3 6 .9 7.8.8 10.2-.3 4.5-2.2 5.1-4 3.1-9.3-1.4-3.7-4.3-6.8-14.9-16.3-7.3-6.5-21.5-20.1-31.7-30.2a371 371 0 0 0-21.5-20.3c-1.6-1-4.5-1.8-6.3-1.8-3 0-5.1 1.8-20.5 17.6z" />
</svg>