<svg xmlns="http://www.w3.org/2000/svg" version="1.0" viewBox="0 0 560 560">
  <path d="M164 122.1c-24.9 2.4-49.8 21.3-66.8 50.7-8.9 15.3-12.1 28.8-12.9 54.7-1.1 36.3 2.5 50.9 18.5 75a112.4 112.4 0 0 0 37.5 35.5c7.6 4.7 19.7 13 27 18.4 7.3 5.5 17.6 13 22.9 16.7a637.7 637.7 0 0 1 58.8 49.4c16.2 15.4 24.6 22 29 23 6 1.3 8.9-.9 44.9-34 6.5-6.1 16.1-14.3 21.3-18.1a4581.5 4581.5 0 0 1 53.2-40.1 227 227 0 0 1 19.6-13.4 111 111 0 0 0 40.1-37.1c7.8-11.4 12-20.5 16.5-35.8 7.5-25.8 8-34.7 2.9-54.4-5.3-21-9.2-31.7-15.3-41.8a95.4 95.4 0 0 0-31.7-35.3c-20.2-13.2-22.2-13.7-58.7-13.3l-29.3.3-7.6 3.1a90.5 90.5 0 0 0-29.7 20.3 128.5 128.5 0 0 0-18.4 23c-3.5 6.3-6 4.6-22.6-15.1-16.1-18.9-29.1-27.9-44.8-30.7-7.2-1.3-44-1.9-54.4-1zm61.8 34.5c15.3 4.5 24.7 10.4 41.9 26.7 7.6 7.2 10.9 9.7 12.8 9.7 2.9 0 6.6-3.4 10-9.1 4.9-8.2 27.1-21.9 44.5-27.4 6-1.9 10.8-2.7 16.5-2.8 28-.4 62.7 25.9 74.5 56.5 8.8 22.8 10.5 39.2 5.6 55.3a118.3 118.3 0 0 1-22.5 43.6 457.4 457.4 0 0 1-45.1 35.7c-6.9 5.1-18.8 14.2-26.5 20.3l-27 21.2a548.2 548.2 0 0 0-18 14.7c-10.9 10.1-12.9 10.3-21.7 2.4a649.6 649.6 0 0 0-19.7-16.3l-26.5-21.4c-7.2-6-16.7-13.5-21.1-16.6-34.1-24.5-42-30.7-51.6-40.8a106.6 106.6 0 0 1-25.4-49.7c-2.3-10.2-1.6-17.4 3-34.1a89.8 89.8 0 0 1 15.6-33.9 92.4 92.4 0 0 1 40.3-31.6c15.5-6.5 24.2-7 40.4-2.4z"/>
  <path d="M329.1 187.6a75.2 75.2 0 0 0-35.9 23.7c-5.5 6.9-9.6 9.3-13.6 8.3-1.5-.4-4.9-3.6-8.2-7.7a74.9 74.9 0 0 0-29.9-22.2 61.2 61.2 0 0 0-33.7.1 66.6 66.6 0 0 0-40.4 44.8c-1.1 4.6-1.6 11.7-1.7 20.9 0 12.6.3 14.7 2.6 21.4 5.5 15.7 14.3 25.1 44.7 47.9a1238 1238 0 0 1 58.1 45.1c11.8 10.5 9.9 11.1 36.6-12a630.8 630.8 0 0 1 50.8-40.4c26.6-19.2 30-22.7 34-36a86.6 86.6 0 0 0 .4-50.3c-2.7-11.1-4.1-14.5-8.5-19.9a113.7 113.7 0 0 0-24.6-19.9 42.3 42.3 0 0 0-30.7-3.8z"/>
</svg>