<svg xmlns="http://www.w3.org/2000/svg" version="1.0" viewBox="0 0 560 560">
  <path
    d="M281.3 86.5c-2.8 2-10.5 14.2-19.2 30.4-4 7.4-11.7 20.3-17.2 28.7-11.9 18.2-13.9 22.3-13.9 28.9 0 6.1 1.5 8.7 10.5 18.6a245.3 245.3 0 0 1 27.1 36.4c3.5 7.5 3.2 13.6-1.1 22.3-6.7 13.4-15.3 17.8-21.6 11.1-4.2-4.5-17.6-26-21.4-34.3a332 332 0 0 1-6.9-18.1c-4.2-12.9-6.4-16.8-10.5-18.9-2.5-1.3-29-5.6-50-8.1-3-.3-10.1-1.7-15.8-3.1-13.7-3.3-19.3-2.3-19.3 3.5.1 4.2 4 12.6 14.1 29.6 5.3 8.8 12.6 21.8 16.5 28.9 11.2 21 12.6 21.7 32.9 19.8 21.2-2.1 25-1.8 38.3 3.2a131 131 0 0 0 16.1 5.1c8.3 1.4 10.6 7.6 5.1 13.9a89.4 89.4 0 0 1-29.6 16.3c-6 1.5-8.1 1.5-18.8.4-21.9-2.4-24.4-2.5-29-.7-6.6 2.5-10.1 7-16.5 21.2a330 330 0 0 1-16.1 29.8c-12.2 20.1-13.9 23.8-14 29.2 0 6.7 3.6 7.1 19 1.8 10.3-3.5 28.5-6.7 53.3-9.2 16.3-1.7 19.7-4.6 23.7-19.8 2.9-11.4 8.7-23.9 14.8-32.3a230 230 0 0 0 10.1-15.4c6.3-10.5 8.8-12.5 13.1-10.7a37.8 37.8 0 0 1 13.8 15.8c5.7 12.5-.5 27-22.7 52.2-11.3 12.9-14.3 18-14.9 25.7-.6 6.7 2.6 13.6 12.3 26.8 3.6 4.9 9.5 14.9 13 22.1 8.3 17.1 11.1 19.1 20.1 13.9 5.8-3.4 21.9-20.9 25-27.2 4.2-8.4 2.5-11.8-8.6-18.1-3-1.7-7.3-4.9-9.5-7.2-3.5-3.6-4-4.7-4-8.8 0-6.3 1.7-8.6 12.8-17.7 9.8-8.1 16.4-15.3 17.3-19.1 1-3.9-.4-7.1-5.9-13.7-8.7-10.2-9-10.8-8.5-18.6a18 18 0 0 1 4.2-12.5c4.5-6.6 9.5-10.1 13.2-9.2 1.4.4 6.6 4.9 11.7 10.1 10.1 10.3 13.8 12.2 20.2 10.4 4.2-1.2 10-6 12.1-10.2 1.5-2.7 1.4-3.2-.3-5.6-2.7-3.5-9.7-6.8-19.6-9.2-18.1-4.3-18.7-4.7-18.7-11.1 0-8.7 6-13.3 24-18.4 18.7-5.3 21.6-5.7 32.3-4.5 21 2.3 27.8 1.2 33.4-5.9 1.2-1.5 8.2-13.7 15.4-27.1l17.5-32.4c7.5-13.8 5.8-16.5-9.3-14.7l-55.3 6.7c-14.2 1.6-19.2 3.3-22.2 7.5-1 1.4-3.6 9.7-5.8 18.4-2.2 8.8-5.1 18.3-6.5 21.1-2.9 6-22.1 27.3-26.4 29.4-6 2.8-11.7-1.3-17.3-12.6-2.7-5.4-3-7-2.6-12.6.4-6.1.7-6.8 6.3-14.1 27-34.6 33.5-44.6 33.5-51.5 0-4.6-1-7-7.4-16.9a698 698 0 0 1-29.8-54.2c-3.3-6.9-6.9-13.5-8.1-14.8-2.4-2.6-5.4-2.8-8.4-.7z" />
  <path
    d="M374.4 323a47 47 0 0 0-7.9 8.1 628.5 628.5 0 0 1-44.8 45.3 72.2 72.2 0 0 0-11.8 12.5c-1.6 4-.3 6.9 4.1 9.1 4.7 2.4 11 2.6 17.2.5 5.4-1.9 18.3-12.9 31.7-27.1 11.4-12.1 13.3-13.4 19.2-13.4 5.7 0 9.7 2.5 15.7 10 6.2 7.8 16.9 18.6 22.3 22.6 6.9 5 16.5 9.2 24.4 10.5 12 2.1 16.2-.5 12.3-7.7a630.1 630.1 0 0 0-36.6-38.2c-34.1-33.7-34.6-34.2-38.6-34.2-2.4 0-5.4.9-7.2 2z" />
  <path
    d="M372.1 390.8c-2.5 2.6-6.3 6.8-8.3 9.4a338 338 0 0 1-21 20.1c-23.1 20.6-32.5 30.5-33.4 35.1-1 5.4.1 8.2 4 10 4.9 2.3 12.2 2 18.1-.8 7.7-3.6 14.6-9.4 31.8-26.9 20.9-21.3 20-21.2 34.9-2 16.2 21 32 31.3 47.8 31.3 5.7 0 7.4-.4 9-2 1.1-1.1 2-2.7 2-3.5 0-5.5-10.7-18.1-25.5-30.3a577.3 577.3 0 0 1-27.6-25.9C385.4 387 384.2 386 380.6 386c-3.3 0-4.6.7-8.5 4.8z" />
</svg>