<svg xmlns="http://www.w3.org/2000/svg" version="1.0" viewBox="0 0 560 560">
  <path d="M275.3 94.6c-1.8.9-6.4 4.9-10.2 9-7.7 8-9.1 11.2-9.1 21 0 8.1-1.1 9.3-9 10-11.3.9-12.7 1.3-17.4 5.5-6 5.3-7.2 9.5-5.2 18.2 1.9 8.3 8 23.5 16.6 41.7 3.8 8 9.4 21.9 12.5 31 6.3 18.2 14.7 36.7 18.9 41.7 3.7 4.4 9 4.6 13.4.5 5.4-5.1 18.7-34.2 22.8-50.2 1.6-6.1 5.6-16 11-27.4 13.3-27.8 17.7-43.3 14.3-49.9-3.5-6.8-8.3-9.5-19.1-10.7-10.2-1.2-11.2-2.2-12.6-11.9a42 42 0 0 0-10.5-21.6c-5.8-7.7-10.8-9.8-16.4-6.9zm-99.7 83.3c-1.5 1.6-1.6 2.5-.7 5.9 1.8 6.5 7.9 13.5 25.6 29.1 12.9 11.4 17.6 14.8 22.7 16.1 5.5 1.5 8.8-.1 8.8-4.2 0-5-2.9-8.9-16.8-22.3-24.3-23.6-34.7-30-39.6-24.6zm196 2.2a235.4 235.4 0 0 0-32.7 26.8c-10.1 10.2-13.3 16.5-10.8 21 1.9 3.3 4.1 3.7 9.6 1.6 8.3-3.2 33.7-25.7 41-36.5 4.2-6.1 6-12.4 4.3-14.5-2-2.3-6.2-1.8-11.4 1.6zm30.1 40.6c-.9.2-13.5 6.6-28 14.1l-38.4 19.7c-12.7 6.3-16.5 9.1-18.9 13.7-2.5 4.8-1.8 7.6 3 12.3 5.5 5.3 6.6 7.4 10.6 20.5 3.5 11.4 5.3 15 7.4 15 3.3 0 20.5-11.8 27-18.4 8.6-8.9 11.2-10.6 15.7-10.6 5.1 0 11.1 4.4 19.8 14.5 7.5 8.6 18.1 18 23.6 20.8 5.1 2.5 9 2.9 12.9 1.3 5.5-2.3 6.2-4.9 3.7-13.3-2.5-8.3-2.6-11.1-.6-13.9 2-2.9 6.4-3.6 14.5-2.3 8.2 1.4 11.3.7 15.1-3.1 3.4-3.3 3.8-8.3 1.3-13.3-6-11.6-31.5-32.7-39.6-32.7-1.5 0-5 .9-7.8 2a33 33 0 0 1-10 2c-8.1 0-9.6-3.3-6.4-14 2.1-7.2 2.1-12-.2-13.7a7 7 0 0 0-2.3-1.2l-2.4.6zm-250.6 3.5c-.4 1.2-.4 3.8 0 5.7l2.1 8.8c1.1 4.7 1 5.4-.7 7.3-2.3 2.5-7.5 2.6-17.4.4-3.9-.9-8.6-1.3-10.4-1-3.7.7-19.6 12.2-27.5 19.9-9.6 9.4-12.7 19.6-7.8 25.4 2.4 2.7 2.7 2.8 13.8 3.1 14.4.3 15.3.6 16.8 4.2 1 2.5.9 4.2-.5 10.2-3.5 15.1-2.1 16.1 21.5 15.3 23.6-.9 33.9-2.2 52.7-7.1 20.5-5.2 22.9-6.1 28-10.8 4-3.6 5.5-6.3 9.4-16.9 1.4-4 3.7-7.5 7-10.8 5.3-5.4 5.8-7 3.1-11.1-2.7-4.1-5.8-6.2-20.3-13.2a1670 1670 0 0 1-51-26.4c-7.2-3.9-10.6-5.2-13.8-5.2-3.4 0-4.3.4-5 2.2zM260.3 300c-2.8 1.1-6.3 6.7-6.3 9.8 0 1.2 1.6 5.4 3.6 9.1 4.8 9.2 5.1 14.2 2.5 41.5-2.6 27.5-2.6 31.6.1 44.6 2.6 12.6 2.1 17.4-2.5 25.1-4.4 7.3-11.1 12-24.7 17.5-17.7 7-22 10-22 15.2 0 1 .9 2.7 2.1 3.8 1.9 1.7 3.5 1.9 18.7 1.6 14-.3 17.2-.7 20.4-2.3 4.4-2.3 42-37.9 44.9-42.6 5.2-8.3 4.3-12.1-3.8-16.2-12.8-6.5-16.9-16.4-11.3-27.1.7-1.4 4.6-5.9 8.6-10.1 11-11.4 12.4-16.2 7.9-26.9-3.5-8.4-3.3-13.3 1-19.9a37 37 0 0 0 4-8.2c.9-3.9-1.1-10.1-4.1-13-2.3-2.1-3.3-2.4-8.7-2-9.5.7-14.6.6-21.7-.2-3.7-.4-7.5-.3-8.7.3z"/>
  <path d="M374.6 322.1c-1.4 1.1-4 4.2-5.8 6.7a319.2 319.2 0 0 1-41.6 41.4c-14 10.4-19.2 15.7-19.2 19.7 0 4.8 1.5 6.7 6.5 8.6a25 25 0 0 0 19.8-1.6c6-3.1 22.8-18 32.4-28.5 8.2-9.1 12.1-11.2 18.7-10 4 .8 5.9 2.5 20.3 18.3 15.1 16.5 23.9 22 39.4 24.4 12.1 1.9 15.9-1.7 10.8-10.1-1.2-1.9-7.2-8.2-13.3-13.9-6.1-5.7-21.5-20.9-34.2-33.8-22.5-22.7-23.2-23.3-27.1-23.3-2.6 0-5 .8-6.7 2.1zm-157.4 9.5c-18 9.2-36.6 27.3-43.7 42.6-3 6.5-3.2 10.4-.6 11.8 5.5 2.9 12.6-.1 30.5-13 16-11.5 27.2-21.3 29.6-26 3.7-7.3 1.9-18-3.2-19.4-3.3-.9-2.9-1-12.6 4z"/>
  <path d="M372.8 390.3c-2.4 2.4-6.5 6.9-9.1 10a536.9 536.9 0 0 1-28 26.6 262 262 0 0 0-25.5 24.9c-2.7 4.9-2.8 9.6-.2 12.2 2.6 2.6 5.8 3.3 13.4 2.8 9.3-.6 14.8-4.4 34.4-24.1 17.9-18 21.3-20.7 25.9-20.7 3.4 0 5.6 2.2 16.3 15.9 13.4 17.1 30.6 28.2 44.8 28.9 11 .6 14.7-3 10.8-10.6a344.6 344.6 0 0 0-31.1-31.3 248 248 0 0 1-27.6-26.5c-11.7-13.8-16.8-15.5-24.1-8.1z"/>
</svg>