<svg xmlns="http://www.w3.org/2000/svg" version="1.0" viewBox="0 0 560 560">
  <path d="M272 99.7a148 148 0 0 0-19.3 39.8 372.8 372.8 0 0 1-20.8 48.5c-9.6 19.8-11.7 27.3-8.5 29.9 1.7 1.4 3.6 1.3 13.9-1.4 11.8-3.1 16-.6 27.3 16.1 9.1 13.3 8.5 18.1-4 36.8-4.1 6.1-8 13.2-8.7 15.6-2.3 8.6-1.6 10.2 18.5 39.2 13.2 19.1 15.5 23.5 15.6 29.1 0 4.9-1.9 8.5-6.9 13-8.1 7.3-12.8 4.4-21.4-13.2-2.8-5.8-6.7-13.3-8.8-16.6a707.6 707.6 0 0 1-24.9-46c-7.3-16.3-9.7-19.1-16.5-18.9-3.5.1-6 1.1-12.2 5.2-13.4 8.8-18.2 9.9-26.1 6.1-7.3-3.6-10.5-12.1-6.6-17.7.8-1.2 7.3-6.7 14.4-12.2 18.5-14.4 20.1-16.7 21.5-32.3a107 107 0 0 1 2.6-13.5 79.3 79.3 0 0 0 2.5-26.6c-.9-3.8-4.6-3.5-8.4.9-4.2 4.7-6.9 9.7-14.7 26.7a69.1 69.1 0 0 1-12.8 21.4 48.1 48.1 0 0 1-19.1 12.9c-7.2 3.5-17.1 7.8-22.1 9.5-12.1 4.2-14 5.7-14 11.3 0 3.7.7 5.3 4.5 10a197.2 197.2 0 0 1 23.1 33c6 11.7 8.3 18.2 10.4 29 1.9 10 3.5 12.7 7.6 12.7 4.5 0 9.3-2.4 19.8-9.9 14.5-10.4 18.9-10.8 26.3-2.2 8.4 9.8 20.2 36.9 22.3 51.5.6 4 .4 4.8-1.8 7-3.3 3.3-6.6 3.3-18.3-.1-5-1.4-9.9-2.3-10.8-2-5.3 2.1-1.3 10.2 9.9 20 4.4 4 16.8 16 27.5 26.8 16.4 16.6 20.1 19.8 23.2 20.4 5.6 1.1 9.8-.9 16.3-7.6 3.3-3.4 10.3-9.8 15.5-14.3 14.1-12.3 17.7-20.3 12.6-28.1a33 33 0 0 0-8.6-6.1c-15.5-8.1-16.5-15.4-3.8-26.5a525.6 525.6 0 0 0 45.3-46.5c2.1-4.5 1.6-5.8-3.7-8.5-7-3.5-23.8-15.9-30.5-22.4-11-10.7-10.6-15.6 3.2-37.8 10.8-17.5 13.5-22.8 13.5-27 0-6.7-6.6-16-24.1-34.2a127.2 127.2 0 0 1-13.3-15.3c-4.2-8.3-4-20.7 1-52.3 1.3-8.6 2.4-19.5 2.4-24.2 0-14.8-2.7-17.2-10-9zm60.7 42.4c-.9 3.5 1.2 13.7 9.7 46.4a111 111 0 0 1 3.2 19c1 16.2 4.9 25.1 12.1 28.2 2 .8 11.9 2.5 22.1 3.9 25.7 3.5 30.8 6 30.6 15.4-.2 6.2-2.7 11.7-10.8 23.5a68.8 68.8 0 0 0-6.6 10.9c0 3.7 3.4 11.7 6.5 15.3a36 36 0 0 0 18.6 10.3c3.7 0 4.6-1.8 5.9-12.4.6-4.7 1.5-9.9 2.1-11.4.6-1.5 3-10.4 5.4-19.9 4.2-16.8 5.6-20.3 14.3-36.6 3.1-5.8 4.2-9 4.2-12.2 0-5.5-.7-6-13.6-7.9-5.4-.8-14.8-3.1-20.9-5.1-6-2-16.6-4.9-23.4-6.6a94.7 94.7 0 0 1-15.2-4.6c-3.7-2.2-7.3-7.4-14.3-20.7a114.7 114.7 0 0 0-15.9-24.3c-2.3-2.8-5.4-7-6.9-9.2-3-4.5-6.2-5.4-7.1-2zM356.4 274c-3.4 1.3-7.3 7.2-9.9 14.7-2.5 7-5.1 24.3-4.1 26.9 1.5 3.8 9.8-.6 18.2-9.9a85.5 85.5 0 0 0 14.1-20.5c2-8.1-9.1-14.9-18.3-11.2z"/>
  <path d="M377.5 321.4c-1.6.7-7.8 6.7-13.7 13.3a420.5 420.5 0 0 1-41.6 39.8c-18.4 15.3-18.7 25.6-.7 25.5 12.1-.1 16.6-3 38.1-24.7 13.1-13.1 16.9-16.3 19.7-16.8 6.1-1.2 10.1 1 17.4 9.3a136 136 0 0 0 29.1 27 56.7 56.7 0 0 0 25.7 5.8c1.8-.4 4-1.5 4.9-2.5 3.3-3.6-.4-9.1-15.5-23.1a847.5 847.5 0 0 1-42.4-42.1c-11-11.8-15.1-14-21-11.5z"/>
  <path d="M376.3 386.6a29 29 0 0 0-7.4 7 580.4 580.4 0 0 1-45.6 44c-14.4 12.9-18.3 17.6-19 23.3-.7 5.3 2 7.4 10.2 7.9 13.7.9 22.8-4.7 46.1-28.3 17.4-17.7 20.3-19.8 24.9-17.7 1.2.6 5.6 5 9.6 9.9 12.4 15 24.8 26.2 34.1 30.9a52.1 52.1 0 0 0 22.6 5.1c4.6-.5 8.2-3 8.2-5.7 0-3.7-6.6-11.3-22.1-25.5-9-8.2-24.3-22.9-33.9-32.7-15.1-15.2-20.7-19.9-23.8-19.8-.4 0-2.1.8-3.9 1.6z"/>
</svg>