<svg xmlns="http://www.w3.org/2000/svg" version="1.0" viewBox="0 0 560 560">
  <path d="M228.1 117.9a10 10 0 0 0-4.5 3.4c-2 2.8-2.1 4.2-2.6 47.5-.3 24.6-.9 45.5-1.4 46.5-.5 1-2.3 2.5-4 3.5-2.8 1.5-7.4 1.7-43.6 1.8a385 385 0 0 0-44.9 1.3c-8.6 2.4-11.5 8.5-11.4 23.6l-.1 35c-.1 39.7-.1 41.6 1.8 47.8 2 6.8 4.1 9.2 9.3 10.6 2.4.7 18.5 1.1 42.8 1.1 21.5 0 40.8.5 42.9 1 2.1.5 4.8 1.8 6 3 2.1 2 2.1 3 2.6 45.8l.5 43.7 2.8 5.8c3.5 7 7.9 10.3 16 11.8 3.6.6 19.5.9 42.5.7l36.7-.3 6-3c4.6-2.3 6.7-4.1 8.8-7.5 5-8.3 5.7-14.7 5.7-56.2 0-25.5.4-38.5 1.1-40.1 2.3-5.1 3.4-5.2 46.9-5.2 35.4 0 41.2-.2 46.1-1.7a23 23 0 0 0 15-14.5c2.3-5.6 2.4-7 2.7-40.3.4-36-.2-42.9-3.9-50.1-1-2.1-3.1-4.6-4.6-5.7-6.4-4.5-11.4-5-54.3-5.5-25.5-.3-41.5-.9-43.2-1.5-1.5-.6-3.5-2.3-4.5-3.9-1.7-2.5-1.8-6-1.8-45.8 0-41-.1-43.2-2-47a13.1 13.1 0 0 0-4.5-5.2c-1.9-1-14.5-1.3-52.5-1.2-27.5.1-51.1.4-52.4.8zm62.1 88c4.3 4.8 5.1 9.8 4.2 24.1-.5 6.9-.9 16.4-.9 21.2 0 7.5.3 9 2 10.8 3 3 11.3 4 32.5 4 20.3 0 23.3.7 27.3 6.2 3 4 3.3 11.5.7 15.6-3.4 5.6-6.5 6.2-29.2 6.2-20.6 0-27.9.9-31 3.6-2.7 2.5-3.1 8.6-1.8 25.8 1.6 19.2.6 27.4-3.5 31.6-2.2 2.2-3.4 2.5-8.9 2.5-7.4 0-10.9-1.9-13.9-7.6-1.7-3.1-1.8-5.3-1.2-25.9.6-21.7.5-22.7-1.4-25.2a10 10 0 0 0-4.8-3.2c-1.6-.4-13.8-1-27.1-1.4l-24.4-.7-2.8-3.2c-5.5-6.2-4.9-17.1 1.3-21.7 2.7-2 4.4-2.1 27.6-2.6 27-.5 29-1 31.2-6.8a75.5 75.5 0 0 0-.2-26.2c-1.4-12-.3-21.7 2.9-26 2.5-3.4 7.7-5.1 13.7-4.5 3.9.3 5.6 1.1 7.7 3.4z"/>
</svg>