<svg xmlns="http://www.w3.org/2000/svg" version="1.0" viewBox="0 0 560 560">
  <path
    d="M279 102.1c-1.9 1.2-8.5 6.9-14.6 12.8-6 5.8-13.6 12.8-16.7 15.4a27.5 27.5 0 0 0-10.7 18c-.6 3.2-1.7 6-2.4 6.3-.7.3-3.6-.9-6.4-2.7-7.5-4.6-11.4-4-22 3.9-15.5 11.5-15.6 11.4-44.9-20.1-7.9-8.5-12.6-11.2-17.7-10.1-12.1 2.6-17.7 11.8-12.5 20.4a254 254 0 0 0 19 20c18.1 17.8 19.5 20 16.5 25.9-.9 1.6-4.5 5.1-8.1 7.6-14.1 10.1-15.8 17-6.5 25.9 4.3 4.1 5.1 7 2.2 8.5a57 57 0 0 1-9 2.6c-8.4 1.9-12.5 4.4-16.9 10.5a121 121 0 0 1-7.9 9.7c-6 6.9-8.9 7.7-23.5 6.4-12.1-1-15.1-.5-17 3.1a41.7 41.7 0 0 0 .6 21.5c2.6 6.6 4.5 7.3 19.3 7.3 16.5 0 21.2 1.3 28.7 8.2 3.1 2.8 8.6 8.9 12.1 13.4 11.9 15.3 16.4 17.3 27 11.9 8.9-4.6 12.4-8.8 12.4-15 0-5.5-2.3-8.8-13-18.6a74.4 74.4 0 0 1-11.2-12.2c-2.1-4.3-1.8-8.7.9-10.9.9-.7 2.9-3.1 4.5-5.2 2.7-3.8 2.8-4.3 2.8-16.1 0-10.7.2-12.5 2-14.8 2.5-3.1 9.8-4.9 15.5-3.8 11 2.2 12.6 3.1 25.5 15.6 6.9 6.7 15.4 14.5 19 17.5a882.5 882.5 0 0 1 57 52.6c22.6 22.3 27.1 26.3 30.3 26.9 7.4 1.4 12.4-1.8 25.2-16.2 10.6-11.8 12.5-14.7 12.5-19.3 0-3.8-2.7-6.7-42.8-44.5a908.6 908.6 0 0 1-35.4-35.3 386.9 386.9 0 0 0-22.6-22.5c-9.4-8.1-10.8-10.1-12.8-19.5-2-9.8-1.8-19.4.4-22.2 1.8-2.2 2.1-2.3 10.8-1.2 12.6 1.5 14.4 1 22.5-6.4 9.2-8.5 11-8.5 18.9-.5 4.3 4.3 6.9 6.2 9.5 6.7 8.9 1.6 19.9-2.6 22.9-9 1.8-3.9 2.1-12.1.5-16.3-.5-1.5-4.5-6.4-8.8-10.8a499 499 0 0 1-14.5-15.7c-7-8-11.9-11.8-15.2-11.8a15 15 0 0 0-5.4 2.1z" />
  <path
    d="M413.4 127c-4.7 2.3-15.7 14.8-23.4 26.3-5.7 8.7-8.1 10.7-13 10.7-4 0-7.8-2.1-16.1-9a41.2 41.2 0 0 0-9.8-6.1c-3.5-1-4.3-.9-9.1 1.7-7.8 4.2-8.4 5.6-9.2 21.4-1 20.9-3.2 25.1-18.7 35.4a69.4 69.4 0 0 0-11.9 9.1c-6.1 7.7 1.4 18.7 23.3 34.5 10.6 7.6 16.4 10.4 19.7 9.1 1.3-.5 4.4-3.5 6.8-6.8a99.4 99.4 0 0 1 22.7-22.5c3.7-1.6 5.7-1.8 16.5-1.2 19.3 1 24.8-1.3 24.8-10.6 0-6.2-1.3-9.3-7.8-19.3-11-16.9-10.3-19.6 10.5-36.3 5-4.1 10.1-8.6 11.2-10 4.6-5.8 4.9-14.5.7-20.6-4.7-6.9-10.8-9-17.2-5.8zM412 239.4c-6 4-10.3 11.1-10.8 17.5-.3 5.2-.1 6.1 3.8 12.1 5.4 8.2 5.2 12.1-.9 20.6-5.7 8-5.7 12.2 0 17.5 4.3 4 13 7.9 17.5 7.9 3.9 0 6.3-1.6 14.4-9.6 9.4-9.2 12.5-10.4 27.4-10.4 17.4 0 21.4-3 22.3-16.7.6-7.8.5-8-2.5-11.4l-3-3.4h-26.9l-5.4-3.7c-3-2.1-10.1-8-15.7-13.3-11.6-10.6-13.9-11.4-20.2-7.1zm-192.3 60.7c-2.1 1.7-7 7.5-11 12.8-3.9 5.3-14.4 17-23.4 26.1-24.9 25.3-28.6 31.3-28.7 45.8-.1 8 0 8.5 2.7 10.8 1.9 1.6 4 2.4 6.4 2.4 7.2 0 32.8-5.1 37.8-7.5 8.6-4.1 61-50.7 62.1-55.1 1.1-4.4-.5-7.2-7.8-13.6-3.9-3.5-10.8-9.7-15.2-13.9-4.5-4.2-9.2-8.3-10.6-9.2-3.8-2.6-8-2.1-12.3 1.4zm155.6 22.2c-1.2.7-4.8 4.6-8.1 8.8a235.5 235.5 0 0 1-35.2 35.4c-25.8 20.7-30.5 30.8-15.4 33.1 13.1 1.9 19-1.4 42.1-23.9 24.8-24.3 24.3-24.2 42.8-3.7 18 19.9 26.7 25.8 41.3 28 9.5 1.5 14.2.2 14.2-3.9 0-4.5-4.6-10.1-21-25.3-8.5-8-21.9-21.2-29.8-29.4a320.2 320.2 0 0 0-17.9-17.7c-4-2.9-9.2-3.5-13-1.4zm-134.1 65.8c-5.7 2.9-15.8 12.9-16.4 16.4-1.2 5.9.8 8.9 15 22.6 23.6 22.7 27.3 24.6 37.3 19.3 3-1.6 9.3-6.8 14.1-11.5 9.8-9.6 13.4-15.8 12.3-21.2-1.3-6.1-3.6-6.8-13.4-4.5-8 1.8-11.4.2-23.1-10.6-13.9-13-17.6-14.5-25.8-10.5z" />
  <path
    d="M376.2 387.4c-1.3.7-5.1 4.6-8.5 8.6-5.7 6.7-14.1 14.8-42.3 40.6-11.4 10.5-15.4 15.6-16.1 21.2-.4 3.2-.1 4.4 1.7 6.2 3.4 3.4 14.2 2.5 23.6-1.9 6-2.8 9.4-5.7 24.9-21.1a190 190 0 0 1 20.8-18.9c4.5-1.7 7.9.5 15.8 10.8 15.2 19.8 28.6 29.7 43.6 32.2 12.9 2.1 18.3-1.3 14.9-9.5-1.6-3.9-5.6-8-24.6-25.1a734 734 0 0 1-26-25c-19.1-19.4-22.1-21.3-27.8-18.1z" />
</svg>