<svg xmlns="http://www.w3.org/2000/svg" version="1.0" viewBox="0 0 560 560">
  <path d="M249.3 101c-10 2.1-19.3 10.2-19.3 17 0 5.4 8.1 9.1 24.5 11 11 1.3 34.1 7.1 44.5 11.1a152.3 152.3 0 0 1 41.7 26.5c16.4 14.1 33.1 40.7 42.4 67.2 2.4 7.1 3.8 9.6 5.6 10.5 7.8 3.5 27.3-13 27.3-23.3 0-2.5-1.2-6.1-3.5-10.2-1.9-3.4-6.1-11.7-9.3-18.3a153.2 153.2 0 0 0-23.8-36.5c-16.8-20.2-35.4-36.4-50.4-44-14.1-7.1-35.7-11.3-59.5-11.6a162 162 0 0 0-20.2.6z"/>
  <path d="M228.7 156.1c-6.2 1.5-9.5 3.7-12.1 8.2a213.2 213.2 0 0 0-15.1 41.2c-5.4 21.4-12.5 36.8-20 43.3a63.9 63.9 0 0 1-9.7 6.7 150.2 150.2 0 0 0-36.9 34c-5.2 7-21.2 32.1-24.5 38.6a97 97 0 0 0-9.4 31c0 7.2 1.5 9.2 12.9 16.8a1032 1032 0 0 1 22.6 16.5c27 20.5 33.8 21.5 44 6.2 4.1-6.2 6.9-7.9 12.7-7.8 5.4.1 10.5 2.2 24.6 10.7 13.6 8 30.8 22.2 49.1 40.3 7.4 7.3 15.1 14.2 17.1 15.2 3.6 1.8 5.5 1.9 51.1.9 72.4-1.6 79.2-2 82.6-4.5 5.5-4.1 6.1-11.3 2.3-26a126.9 126.9 0 0 0-32.9-53.5c-16.6-16.6-26.5-22.1-51.1-28.9-22.6-6.2-36-17.1-36-29.1 0-12.6 16.2-28.5 48.3-47.3 5.3-3.1 11.3-7.1 13.3-8.8 3.3-2.9 3.6-3.6 3.1-7.1a286 286 0 0 0-22.5-45.9 119.3 119.3 0 0 0-25.9-27.4 170 170 0 0 0-42.8-19.8c-17.5-4.4-35.2-5.8-44.8-3.5z"/>
</svg>