<svg xmlns="http://www.w3.org/2000/svg" version="1.0" viewBox="0 0 128 128">
  <path d="M70.5 20c-4.9.4-9.7 1.1-10.6 1.4-.9.4-5.8 9.3-11 19.8l-9.4 19.2H33l-6.5.1-1.9 4C22.1 69.5 21.4 78 23 82c1 2.4 1 3.3 0 4.5-.7.9-1.3 4-1.3 7.1 0 4.9.4 5.9 3.4 9 4.9 5.1 8.4 6.7 13.6 6.1 2.4-.2 5.2-1.2 6.2-2.1 1.5-1.3 2.3-1.4 5-.5 4 1.4 9.4.7 15.3-1.9 4-1.8 4.7-2.5 5.2-5.8.4-2.2.2-5.3-.3-7.1l-.9-3.2L86.8 78c9.8-5.6 18.2-10.8 18.8-11.6 2-2.5 2.4-9.2 1.6-27.2-.7-15.5-1-17.6-2.7-18.8-2.1-1.5-17.4-1.7-34-.4zM100 35.8c0 5.5.3 13.2.6 17.3l.7 7.5L80 72.8a147.1 147.1 0 0 1-22.7 11.8c-2.7-1.1-2.4-3.7 1.3-9.8l5.8-9.8 2.1-3.5-3 1.9-9.9 6.8c-6.8 4.7-7.1 4.8-8.8 3-1.8-1.7-1.5-2.5 8.9-24l10.7-22.1 8.1-.4 17.8-.5 9.7-.2v9.8zM42.6 75.2l16.3 15.1 6.2 5.7-4.6 2a30 30 0 0 1-5.8 2c-.6 0-4-2.8-7.6-6.3L34.3 81.8 28.2 76l1.6-5a16 16 0 0 1 2.2-5c.3 0 5.1 4.2 10.6 9.2zM44.9 94c0 .3-1.7 2.4-3.7 4.8l-3.8 4.2-4.7-4.5a24.7 24.7 0 0 1-4.7-5.2c0-.4 1.7-2.4 3.7-4.5l3.7-3.7 4.7 4.2c2.6 2.3 4.7 4.4 4.8 4.7z"/>
</svg>