<svg xmlns="http://www.w3.org/2000/svg" version="1.0" viewBox="0 0 389 330">
  <path d="M333.5 3.4c-7.4 3.7-8.6 4.8-43.6 42.6l-87.5 94a27811 27811 0 0 0-81.3 87.6l-6.4 7.1-25.2-29.1a451 451 0 0 0-29.1-31.8c-7.2-5-14.8-7-24.9-6.6a31 31 0 0 0-16.1 4 32.6 32.6 0 0 0-16.5 17.2C.3 193.9 0 195.5 0 205c0 16.7 0 16.7 43.5 67 45 52.1 44.6 51.6 52 55.2 5.6 2.6 6.9 2.8 18 2.8 12.9 0 17.1-1.2 24.2-6.6 3.3-2.5 47.5-49.7 164.7-175.9L347 99.7a879.4 879.4 0 0 0 36.2-40.3c4.9-7.2 5.8-10.8 5.8-22.9 0-9-.3-10.6-2.9-16.1a33.8 33.8 0 0 0-15.8-17C365 .8 363.5.5 352.5.2l-12-.3-7 3.5z"/>
</svg>