<svg xmlns="http://www.w3.org/2000/svg" version="1.0" viewBox="0 0 128 128">
  <path d="M32.2 31.3a24.7 24.7 0 0 0-12.9 12.4c-2.6 5.3-2.8 6.7-2.8 16.8 0 10 .2 11.5 2.7 16 3.1 5.9 5.2 7.9 17.8 17.2 5.2 3.8 12.2 9.3 15.4 12.1 5.6 5 6.2 5.2 11.6 5.2 5.4 0 6-.2 11.6-5.2 3.2-2.8 10.2-8.3 15.4-12.1 12.6-9.3 14.7-11.3 17.8-17.2 2.5-4.5 2.7-6 2.7-16s-.2-11.5-2.8-16.7c-5.3-10.9-12.4-14.3-28-13.6-7.3.3-10.1.9-13 2.6L64 34.9l-3.7-2.2c-3.2-1.8-5.5-2.2-14.3-2.4-6.5-.2-11.7.2-13.8 1zM55 39c3.7 1.9 8 6.7 8 8.9 0 .6.5 1.1 1 1.1.6 0 1-.5 1-1.1 0-2.2 4.3-7 8-8.9a30 30 0 0 1 19.8-.6A26.4 26.4 0 0 1 105 65.1c-1.9 7.7-5.9 13-14.8 19.2-4.4 3.1-12.2 9.1-17.1 13.2l-9.1 7.6-8.3-6.9c-4.5-3.8-12.2-9.9-17.2-13.4-11.3-8.1-14.7-13.1-15.3-22.4-.7-10 3.6-18.8 11.3-23.5 4.3-2.7 15.2-2.6 20.5.1z"/>
  <path d="M42.2 46.7c-4.1 2-6.8 5.7-8.3 11.4-2.5 9.2.6 15.2 11.8 23.5 4.3 3.1 10.1 7.7 13 10.2l5.2 4.4 7.3-5.9c4-3.3 10-8 13.3-10.4 6.4-4.7 10.5-11 10.5-16.2C95 48 79.4 39.5 68.5 49.2c-1.9 1.6-3.5 3.7-3.5 4.6 0 1.1-1.2.2-3.2-2.2-5.2-6.4-12.8-8.3-19.6-4.9zm15.1 4.7c1.8.7 4 2.3 5.1 3.4l1.9 2.1L67 54c7.2-7.7 19.8-2.9 21.5 8.3.9 5.7-1.2 10.6-6 14.3a747 747 0 0 0-11.1 8.7L64 91.2l-3.8-3.4a155 155 0 0 0-10.2-8c-3.6-2.5-7.3-6-8.2-7.6-3.9-6.6-1.2-17.1 5.3-20.4 4.1-2.2 6-2.2 10.2-.4z"/>
</svg>