<svg xmlns="http://www.w3.org/2000/svg" version="1.0" viewBox="0 0 263 263">
  <path d="M85.4 1.5a105.3 105.3 0 0 0-82 74C.8 84 .6 85.7.6 103.5s.1 19.6 2.7 28a105.2 105.2 0 0 0 72.2 72.1c12.8 3.7 34.7 4.5 48.5 1.6 11.6-2.4 23-6.8 32.9-12.8l7.4-4.5 37.1 37c40 39.8 39.3 39.3 48.1 37.7 4-.8 9.9-5.5 12.1-9.7 1.9-3.8 1.8-11.8-.2-14.9a1325 1325 0 0 0-37.5-38.5l-35.9-36 2.1-3A103.9 103.9 0 0 0 129 3.3a123 123 0 0 0-43.6-1.8zM120.9 32a76.1 76.1 0 0 1 40.8 26.4 75.1 75.1 0 0 1 5.3 82.8 74 74 0 0 1-115.2 15.3A73.7 73.7 0 0 1 120.9 32z"/>
</svg>