<svg xmlns="http://www.w3.org/2000/svg" version="1.0" viewBox="0 0 512 512">
  <path d="M251.4 12.1a14 14 0 0 0-5.1 3.1c-1.1 1.3-16.8 37.2-34.8 79.8-18 42.6-33 77.8-33.3 78.1-.4.4-38.4 3.9-84.5 7.8A2972 2972 0 0 0 7.6 189c-1.2.4-3.5 2.3-4.9 4-2.2 2.5-2.7 4.2-2.7 8.4 0 3 .6 6.1 1.6 7.4.8 1.2 29.9 26.8 64.5 56.8 34.7 30.1 63.3 55.2 63.5 55.8.3.7-7.9 37.1-18.1 80.9a7457.8 7457.8 0 0 0-19 83.5c-1.2 7.7 5.1 14.6 13.2 14.6 4.5-.1 9-2.6 77.2-43.7a4383 4383 0 0 1 73.2-43.7c.4 0 33.1 19.5 72.6 43.3 39.5 23.9 73.1 43.7 74.6 44.1 6.8 1.7 14.9-3.7 16.2-10.7.4-2.2-5.1-27.8-18.5-85.2-10.5-45-18.8-82.5-18.6-83.1.3-.7 28.8-25.7 63.4-55.7 34.7-30 63.7-55.6 64.6-56.9 1-1.4 1.6-4.3 1.6-7.5 0-4.6-.4-5.8-3.2-8.9-2.8-3-4.2-3.6-9.8-4.4-3.6-.5-42-3.9-85.5-7.6-43.4-3.7-79.3-6.9-79.7-7.3-.3-.3-15.3-35.5-33.3-78.1-18-42.6-33.6-78.5-34.8-79.8a15.2 15.2 0 0 0-5.6-3.2c-4.1-1.1-4.5-1.1-8.7.1z"/>
</svg>