<svg xmlns="http://www.w3.org/2000/svg" version="1.0" viewBox="0 0 512 512">
  <path
    d="M326.5 2.3c-7.6 2.9-14 7.3-19.6 13.5a951.8 951.8 0 0 0-25.4 33.8 562.6 562.6 0 0 1-25.3 33.2c-4.9 5-11.8 8.4-22.3 11.2l-13.4 3.5-33.5 9c-30.9 8.3-33.3 8.6-42.5 6.1-4.1-1.2-16.6-6.5-40-17.1l-12-5.3-14-6.2a59.2 59.2 0 0 0-51-.7 51.3 51.3 0 0 0-26.1 30.6C-1 121.7-.2 155.5 4 228.5L6.5 275 9 321c1.7 29.1 3.2 57.4 3.2 60 0 5.1 3.9 18.7 7.7 26.5a77.3 77.3 0 0 0 77.7 44.4c5.9-.5 11.5-1.1 12.4-1.4 1.2-.4 1.9 1 3.3 6.3a75 75 0 0 0 39.2 48.2c11.6 5.8 17.4 7 34.5 7 16.8 0 22.6-1.2 34.5-6.9a74 74 0 0 0 34.3-34.5 69 69 0 0 0 4.2-9.7c0-1.2 0-1.2 10.5 2.5a49.2 49.2 0 0 0 57.1-19.2c1.6-2.9 2.3-3.2 6.5-3.2 5.8 0 16-3.3 22.1-7.1a58.6 58.6 0 0 0 15.5-15.9 54 54 0 0 0 6-34.4c-1.3-7.6 1.4-5.4 3.6 3l4.2 15.9 4.9 18.5c1.5 5.2 4 14.9 5.7 21.5 4 15.5 6.8 21.2 12.9 26.9 7.6 7.1 12.6 9 24.5 9 9 .1 10.6-.2 15.6-2.7a40.1 40.1 0 0 0 17.1-17.5 46 46 0 0 0 .9-28.3c-2.9-11.2-11.6-43.6-15.6-58.1l-3.2-11.6 9.3-3.1a78 78 0 0 0 48.3-43.2 75 75 0 0 0 6.1-32.6c0-20-.1-20.3-29.3-78.3-14.3-28.3-31.9-63.2-39.3-77.5L411.1 62a500.9 500.9 0 0 0-23.3-43 55 55 0 0 0-22.9-16.9c-9.2-3.1-29.8-3-38.4.2zM310 173.6a77.4 77.4 0 0 1 44 23.3c7.7 7.8 9.7 10.8 20.9 30.5 15 26.5 17.1 31.7 17.1 43 0 14.6-4.5 25-15.4 35.4-8.1 7.8-13.5 10.3-38.1 17.7A2293 2293 0 0 1 221 355.6c-55.7 13.7-56.8 13.9-68.3 10.9-8.3-2.2-15.3-6-21.5-11.9a46 46 0 0 1-13.8-20.9c-2.4-7-2.5-8.1-2.7-36.7l-.2-29.5 3.6-10.5c10.5-30.3 26.9-45 63.9-57.4 13.7-4.5 43.1-13.1 55-16 15.7-3.8 28.1-6.5 36-8 4.7-.8 10.5-2 13-2.5 7-1.4 15-1.2 24 .5zm-112.3 259c1.4 5.6-.3 10.2-4.6 13.1-4.7 3.2-8.3 2.9-12.6-.8-3.1-2.8-6.5-10.2-5.2-11.6 1-.9 20.2-6 20.8-5.4.3.3 1.1 2.4 1.6 4.7z" />
  <path
    d="M287.1 225.8c-9.8 6.6-10.6 14.8-3.8 39.2 4.9 17.3 5.3 18.4 9.4 22.2 3.7 3.5 7.3 4.8 13.4 4.8 9.8 0 16.9-5.4 18.9-14.3 1.4-6 1.3-6.7-4.4-28.2-4.4-16.4-6.6-20.8-12.2-24.1a21.8 21.8 0 0 0-21.3.4zm-107.9 28.3a16 16 0 0 0-6.8 6.6c-4.2 7.1-3 17.6 5.1 44.8 3.6 11.9 9.1 15.9 21 15.3 8.4-.4 13-3.1 16-9.5 3.7-7.7 3.2-11.6-5.7-42.6-2.1-7.5-6.4-13.2-11.5-15.3a25.2 25.2 0 0 0-18.1.7zM224.5 64l-22 6a2392 2392 0 0 0-21.5 5.7l-20.5 5.5c-6 1.6-12 3.6-13.2 4.4-7.6 4.9-7.6 17.2 0 22.8 4.1 3 10.7 2.6 25.7-1.6l26-7.2 30.3-8.1c9.2-2.5 17.9-5.2 19.2-6.1 3.2-2.1 5.8-8.9 5-13.2-2.1-11.2-9.9-13.4-29-8.2z" />
</svg>