<svg xmlns="http://www.w3.org/2000/svg" version="1.0" viewBox="0 0 512 512">
  <path
    d="m221 .6-11.5 2C113.7 18.9 32.1 94 7.1 189.1.8 213.1.5 216.2.5 256c0 39.8.3 42.9 6.6 66.9a257.9 257.9 0 0 0 182.2 182c23.7 6.3 26.9 6.6 66.7 6.6 39.8 0 42.9-.3 66.9-6.6a257.9 257.9 0 0 0 182-182.2c6.3-23.7 6.6-26.9 6.6-66.7 0-39.8-.3-43-6.6-66.7a258.4 258.4 0 0 0-180-181.7C300.9 1.1 297.4.7 259 .4c-19.5-.1-36.6 0-38 .2zm152.7 105.3c4.7 2.3 9.9 8 12.1 13a29.8 29.8 0 0 1 0 18.2c-9.2 21.5-39.7 20.4-46.4-1.7a28 28 0 0 0-2.8-7c-.6-.7-13.4-3.8-28.5-7-24.4-5.1-27.5-5.5-28.5-4.2a964.2 964.2 0 0 0-16.9 80.8c.4.4 5.8 1.3 11.8 1.9a186.8 186.8 0 0 1 87.1 30c1.8 1.2 2.6 1 6.7-2.2a34.4 34.4 0 0 1 26.3-6.8 36.3 36.3 0 0 1 30 31.9c1.3 12.1-5.5 26-16 32.7l-5.3 3.4v11.3c-.1 22.8-9 42.4-27.5 60.5-30.1 29.3-84.9 46.6-134.8 42.4-67-5.7-118.2-39-130.6-85.1a81 81 0 0 1-1.8-17.9l-.1-11.3-5.2-3.4A35.4 35.4 0 0 1 89 266.1a27 27 0 0 1-.5-18.6 35.3 35.3 0 0 1 54.4-20.4c2.3 1.6 4.8 2.9 5.7 2.9.9 0 4.8-2 8.8-4.5 22-13.7 50.6-22.7 81.6-25.8l12.5-1.2 9.6-45.3a655.3 655.3 0 0 1 10.9-46.7c.7-.8 2.2-1.5 3.5-1.5 1.2 0 16.1 3 33.1 6.6l30.9 6.6 1.4-2.4c3.1-4.7 9.2-9.8 13.9-11.3a26.7 26.7 0 0 1 18.9 1.4z" />
  <path
    d="M189.8 255.4a29.6 29.6 0 0 0-19.9 20 34 34 0 0 0 1.7 19.2c2.4 5 8.8 11.4 13.9 13.9a33.7 33.7 0 0 0 24.2-.3c5.8-3 11.1-8.6 13.6-14.1a31 31 0 0 0-.2-23.2 29 29 0 0 0-33.3-15.5zm118.5-.4a30 30 0 0 0-19.4 15.9 31 31 0 0 0-.2 23.2 31.9 31.9 0 0 0 13.6 14.1 33.7 33.7 0 0 0 24.2.3 36.2 36.2 0 0 0 14-14 33.7 33.7 0 0 0-.3-24.2 29.2 29.2 0 0 0-31.9-15.3zm-116.8 87.5c-3.7 3.6-3.3 7.7 1.3 12.5 11.4 12 34.6 19 63.2 19 27.7 0 50-6.3 62.1-17.7 5.8-5.5 6.6-9.7 2.4-13.8-3.6-3.7-8.6-3.4-13.9 1-5.4 4.4-13.6 8-24.5 10.8a147.7 147.7 0 0 1-52.2 0 64 64 0 0 1-24.2-10.6c-5.8-4.6-10.5-4.9-14.2-1.2z" />
</svg>