<svg xmlns="http://www.w3.org/2000/svg" version="1.0" viewBox="0 0 512 512">
  <path d="M274 182.4c0 120.6-.3 182.7-1 183.1-.5.3-1 2.6-1 5.1 0 2.4-.4 4.4-1 4.4-.5 0-1 1.1-1 2.4 0 1.4-.4 2.8-1 3.1-.5.3-1 1.4-1 2.4 0 2.3-5.6 13.5-7.5 15.1-.8.7-1.5 1.8-1.5 2.4 0 1.4-16.2 17.6-17.6 17.6-.6 0-1.8.8-2.7 1.8-.9 1-3.2 2.4-5.2 3.2-1.9.8-3.5 1.7-3.5 2.2 0 .4-.6.8-1.2.8-.7 0-3.5 1.1-6.2 2.5a23 23 0 0 1-6.8 2.5c-1 0-1.8.4-1.8 1 0 .5-2 1-4.4 1-2.5 0-4.8.5-5.1 1a87.2 87.2 0 0 1-26 0c-.3-.5-1.9-1-3.5-1s-3.2-.5-3.5-1c-.3-.6-2.2-1-4.1-1-1.9 0-3.4-.5-3.4-1 0-.6-.9-1-2-1s-2-.5-2-1c0-.6-.5-1-1.1-1-1.8 0-9.5-3.9-10.9-5.5-.7-.8-1.8-1.5-2.4-1.5a101 101 0 0 1-17.6-17.6c0-.7-.7-1.7-1.5-2.4a31.2 31.2 0 0 1-5.5-10.9c0-.6-.4-1.1-1-1.1-.5 0-1-1.1-1-2.4 0-1.4-.4-2.8-1-3.1-.5-.3-1-1.7-1-3s-.5-2.7-1-3c-.6-.3-1-1.9-1-3.5s-.4-3.2-1-3.5a87.2 87.2 0 0 1 0-26c.6-.3 1-2.2 1-4.1 0-1.9.5-3.4 1-3.4.6 0 1-1.1 1-2.4 0-1.4.4-2.8 1-3.1.5-.3 1-1.7 1-3.1 0-1.3.5-2.4 1-2.4.6 0 1-1 1-2.3 0-1.3 1.1-3.4 2.5-4.7 1.4-1.3 2.5-2.9 2.5-3.5 0-.7.9-2 2-3s2-2.3 2-2.9c0-1.4 11.9-13.3 15.1-15.2l4.6-2.3c1.1-.5 2.4-1.4 2.7-2 .9-1.3 5.9-3.8 9.6-4.6 1.6-.4 3.2-1.1 3.5-1.6.4-.5 1.7-.9 3-.9s2.7-.4 3-1c.3-.6 2.4-1 4.5-1s4.2-.5 4.5-1c.3-.6 5.2-1 11.1-1H202l-.2-39.3-.3-39.2-13.9-.3c-8.6-.2-14.3.1-15 .8-.5.5-3.1 1-5.7 1s-5.1.4-5.4 1c-.3.5-2.4 1-4.5 1s-4.2.4-4.5 1c-.3.5-1.7 1-3 1s-2.7.4-3 1c-.3.5-1.8 1-3.3 1-1.5 0-4 .7-5.6 1.5-1.5.8-3.4 1.5-4 1.5-1.8 0-6.6 2.4-6.6 3.2 0 .5-1.1.8-2.3.8-1.3 0-3.2.9-4.2 2s-2.2 2-2.8 2c-1.6 0-8.1 3.3-9.7 4.9a25.2 25.2 0 0 1-7.5 5c-1.1.5-3.1 2.1-4.4 3.5-1.4 1.4-2.9 2.6-3.5 2.6A188 188 0 0 0 69 257.6c0 .6-1.1 2.1-2.5 3.4-1.4 1.3-2.5 2.9-2.5 3.5 0 .7-.9 2-2 3s-2 2.2-2 2.8c0 .5-.8 1.7-1.7 2.6-2.3 2.1-3.4 3.9-7.6 12.6-5.4 11-6.7 14.1-6.7 16.3 0 1.2-.4 2.4-1 2.7-.5.3-1 1.7-1 3.1 0 1.3-.4 2.4-1 2.4-.5 0-1 1.1-1 2.4 0 1.4-.4 2.8-1 3.1-.5.3-1 2.3-1 4.4 0 2-.6 4.3-1.2 4.9-1.9 1.9-1.9 62.3 0 62.9.7.3 1.2 2.2 1.2 4.8 0 2.4.5 4.7 1 5 .6.3 1 1.7 1 3.1 0 1.3.5 2.4 1 2.4.6 0 1 1.1 1 2.4 0 1.4.4 2.7.9 3A110.9 110.9 0 0 0 55.4 436c1.2 2.6 3.1 5.7 4.6 7.5 1.5 1.9 3.4 4.9 4.9 8 .5 1.1 3.2 4.2 6 7 2.8 2.7 5.1 5.3 5.1 5.8 0 1 4.7 5.7 5.7 5.7.5 0 3.3 2.5 6.3 5.5s5.9 5.5 6.5 5.5c.7 0 2.2 1.1 3.5 2.5 1.3 1.4 2.9 2.5 3.6 2.5.6 0 1.8.7 2.5 1.6.7.9 2.2 2 3.4 2.5a38 38 0 0 1 6.5 3.9c1.2 1.2 13.4 7 14.9 7a7 7 0 0 1 3.5 1.5c1.1.8 3 1.5 4.2 1.5 1.3 0 2.6.5 2.9 1 .3.6 1.5 1 2.6 1 1.9 0 2.8.4 7.6 2.8a16 16 0 0 0 6.3 1.2c2.2 0 4 .4 4 1 0 1.4 64.7 1.4 65.5 0 .3-.5 1.9-1 3.5-1s3.2-.5 3.5-1c.3-.6 1.7-1 3-1s2.7-.4 3-1c.3-.5 1.7-1 3.1-1 1.3 0 2.4-.4 2.4-.9s2.1-1.2 4.6-1.6c4.2-.6 8-2.1 9.4-3.5.3-.3 3-1.8 6-3.4a66 66 0 0 0 17.7-10.6c.5 0 2-1.1 3.3-2.5 1.3-1.4 2.8-2.5 3.4-2.5 1.5 0 27.6-26.2 27.6-27.7 0-.7.9-1.8 2-2.5s2-2 2-2.8c0-.8.9-2.1 2-2.7 1.1-.7 2.9-3.3 4-5.7a16 16 0 0 1 3-5.1c1.1-.7 5-8.8 5-10.4 0-.6.5-1.1 1-1.1.6 0 1-.9 1-2s.9-3.5 2-5.5 2-4.4 2-5.5c0-1.1.4-2 1-2 .5 0 1.2-2.7 1.6-6 .4-3.3 1.1-6 1.5-6 .5 0 .9-1.5.9-3.4s.4-3.8 1-4.1c.5-.3 1-3.2 1-6.4 0-3.1.4-6.1 1-6.7.6-.6 1.1-40.5 1.2-113.4.2-85.4.6-111.9 1.4-110a21 21 0 0 0 3.8 4.9c1.4 1.4 2.6 2.9 2.6 3.6a74.3 74.3 0 0 0 18.5 17.5c1.6 1.6 3.4 3 4 3 .6 0 2.2 1.1 3.5 2.5 1.3 1.4 2.9 2.5 3.7 2.5.7 0 1.3.4 1.3.9a41 41 0 0 0 9.8 5.7c5.3 2.7 9.9 5.2 10 5.6.2.5 2.1 1.1 4.3 1.4 2.2.4 4.2 1.1 4.5 1.5.3.5 1.6.9 2.9.9 1.3 0 2.7.4 3 1 .3.5 1.9 1 3.5 1s3.2.4 3.5 1c.3.5 2.3 1 4.4 1 2 0 4.1.4 4.7 1 .5.5 8.6 1.1 18 1.2 13.3.2 17.4 0 18.7-1.1 1.5-1.2 1.7-5.3 1.7-43 0-31.1-.3-42-1.2-42.9-.7-.7-3.3-1.2-5.9-1.2-2.6 0-5.1-.5-5.4-1-.3-.6-1.9-1-3.5-1s-3.2-.5-3.5-1c-.3-.6-2.6-1-5.1-1-2.4 0-4.4-.4-4.4-.9s-2-1.2-4.5-1.6a32 32 0 0 1-8.3-2.5l-9.5-4.7c-9.2-4.5-9.7-4.7-9.7-5.5 0-.5-.8-.8-1.8-.8s-2.4-.9-3.2-2c-.8-1.1-1.9-2-2.5-2-.7 0-2.2-1.1-3.5-2.5-1.3-1.4-2.8-2.5-3.4-2.5-1.4 0-21.6-20.2-21.6-21.6 0-.6-1.3-2.3-3-3.9-1.6-1.6-3-3.3-3-3.7a4 4 0 0 0-1-2.1 53.4 53.4 0 0 1-11-19.5c0-.6-.9-2.7-2-4.7s-2-4.4-2-5.5c0-1-.4-2.2-1-2.5-.5-.3-1-1.7-1-3.1 0-1.3-.4-2.4-1-2.4-.5 0-1-1.1-1-2.4 0-1.4-.4-2.7-.9-3-.5-.3-1.2-4.2-1.6-8.6l-.7-8H274v182.4z"/>
</svg>