<svg xmlns="http://www.w3.org/2000/svg" version="1.0" viewBox="0 0 512 512">
  <path d="M182 76.1c-74.3 2.2-114.4 5.7-131.7 11.5a67.4 67.4 0 0 0-38.2 37.7c-4 10.9-7.1 30-10.3 63.7C0 207.4 0 303.3 1.8 322c5.2 54.9 9.7 70.4 25.3 85.9C44.6 425.4 63.7 429.6 141 433c114.6 4.9 259.8 1.8 307-6.5a65 65 0 0 0 45-27.8c9-12.8 12.2-26.3 17.2-74.2 1.8-16.7 1.8-122.6 0-138.5-5.9-53.4-8.2-62.5-19.5-77.5A78.5 78.5 0 0 0 468.2 90c-11.9-5.9-39.2-9.6-89.2-12-61.8-2.9-136.2-3.7-197-1.9zm46.5 117.7 22 12.8 22.5 12.9 38 21.9c27.2 15.7 24.6 13.6 20.2 16.1l-56.7 32.7a1430.7 1430.7 0 0 1-47.8 27.5c-2.3 1.5-6.7 4.1-9.7 5.8l-8.2 4.9-2.8 1.8V180.9l2.3 1.2 20.2 11.7z"/>
</svg>