<svg xmlns="http://www.w3.org/2000/svg" version="1.0" viewBox="0 0 560 560">
  <path
    d="M272.5 98.4a510.2 510.2 0 0 0-154.3 103.1c-12.4 11.9-14.7 15.8-14.6 25 .1 8.7 1.6 14 11 38 4 10.4 13 35 19.8 54.5 24.7 70.5 25.1 71.5 32.7 82.5a83.8 83.8 0 0 0 28.5 25.5c28 17.3 42.7 24.2 64.9 30.6 17.4 5 21.9 5 40.1-.4a217 217 0 0 0 46.6-19.7c25.3-13.8 37.2-23.4 46.3-37 5.6-8.5 23.3-54.2 40.5-105 3.1-9.4 8.1-22.6 11-29.5 13.9-32.9 16.1-43.1 10.9-50.3-2.3-3.4-24.2-24-40.4-38.3a533.6 533.6 0 0 0-80.5-55.6c-13-7.2-40.7-20.7-46.7-22.7-7.1-2.4-10.1-2.5-15.8-.7zm20 35.8c7 2.3 30.5 14.8 49 26.1a456.2 456.2 0 0 1 47.5 34.3c12.2 9.8 32.6 30.9 35.3 36.7 3.2 6.6 2.7 8.5-8 34.7-3.3 8-9.7 25.5-14.3 39a661 661 0 0 1-26 67.5c-7.3 12.7-18.7 22.8-38.7 34.2-12 6.9-32.2 16.5-41.8 19.8a59 59 0 0 1-25.4 1.6 318.5 318.5 0 0 1-52.3-24.1c-17.5-10.5-28.1-20.8-34.5-33.2a616.8 616.8 0 0 1-22.4-56.7 886.7 886.7 0 0 0-17.8-48.6c-2.2-6.1-5.1-13.7-6.5-17-3-7-3.3-12.3-.9-17.3 2.9-6.3 33.2-35.7 48.8-47.4a492 492 0 0 1 73.5-45.3c15.8-7.9 21.3-8.6 34.5-4.3z" />
  <path
    d="M271 158.9a447.4 447.4 0 0 0-56.9 32 379.3 379.3 0 0 0-47.6 39.3c-7.6 8.8-7.9 13.2-1.8 25.3 1.9 3.8 6.2 14.6 9.3 24 17.8 52.1 23.1 65.9 30.3 80 7 13.5 10.5 16.3 38.7 30.2a252.7 252.7 0 0 0 29.9 13.3c9.6 2.2 15.7.9 30.4-6.3a325 325 0 0 1 18.5-8.6c20.7-8.1 30.8-18.6 40-41.5 5.8-14.4 13.5-35.8 22.7-62.6 4-11.8 9.1-25 11.4-29.3 6.8-13 5.7-17.1-8.4-30.5a348.8 348.8 0 0 0-76.3-54.1c-26.4-13.9-30.4-15.1-40.2-11.2z" />
</svg>