<svg xmlns="http://www.w3.org/2000/svg" version="1.0" viewBox="0 0 560 560">
  <path
    d="M216.5 119.4c-17.2 3.6-21.2 5.9-40.7 23a105.2 105.2 0 0 0-33 54.2 80 80 0 0 0-3.2 26.4c0 13.4.2 15.1 2.8 22.5a205.7 205.7 0 0 0 19.2 38.1 85 85 0 0 0 22.4 20.9c9 5.9 27.4 15 36.7 18.2 7.4 2.6 8.7 2.7 27.3 2.7 18.5 0 19.9-.1 27-2.6 9.9-3.5 37.4-16.8 42.6-20.6 15-11 34.5-48.8 38.5-74.4 3.2-20.4-5.5-48.9-21.1-69.6a174.7 174.7 0 0 0-36.5-32.7 63 63 0 0 0-18.3-5.9 117.7 117.7 0 0 0-32.5-2.5c-17 0-21.9.4-31.2 2.3zm181.3 87.5c-3.1 2.5-7.3 10.5-12.9 24.6-5.7 14.6-24 51.2-32.5 65-12.8 21-13 22.1-4.2 33.2 3.4 4.3 10.7 12.4 16.2 18 5.5 5.7 10.6 11.3 11.3 12.5 2 3.6 1.6 12.8-.7 16.5-1 1.8-6.2 8.2-11.4 14.2-17.3 20-23.5 29.6-22.2 34.5 1.4 5.5 10.2 2.4 25.8-9a220 220 0 0 1 19-12c5.7-3 16.2-9.5 23.3-14.3a118 118 0 0 1 25.5-14.6c3.8-1.1 9-5.4 10.1-8.2 1.4-3.8-1.3-7.9-9.9-15.3a73.3 73.3 0 0 1-17.8-21.7c-1.9-4.5-1.7-9.2.5-12.9 2-3.3 23.6-19.5 42.2-31.7 12.9-8.4 16.2-11.5 16.2-15.2 0-3.4-1.6-5-15.3-16a626 626 0 0 1-30.3-27.4c-22.8-21.9-27.2-24.6-32.9-20.2z" />
  <path
    d="M304.6 339.6a82.1 82.1 0 0 0-7.5 4.3 840.4 840.4 0 0 1-35.2 21.2c-13.1 6.6-22 4.2-51.6-14.2-18.7-11.6-21.4-12.9-26.6-12.9-4 0-5.2.6-11.9 6.4-9.4 8-43 43.4-49.7 52.4a56.5 56.5 0 0 0-12.9 27.7c-.4 6-.2 6.6 2.5 9.4 3.6 3.5 10.5 5.7 22.8 7.1 5.3.6 40.6 1 85.8 1 70 0 77.2-.2 80.4-1.7 2.7-1.3 5.4-4.4 10.8-12.7 4-6.1 12.3-17.9 18.4-26.1 6.1-8.3 12.1-17 13.2-19.3 2.7-5.5 3.5-12.3 1.9-16.1a206 206 0 0 0-28.7-27.9c-3.3-1.8-6.3-1.4-11.7 1.4z" />
</svg>