<svg xmlns="http://www.w3.org/2000/svg" version="1.0" viewBox="0 0 560 560">
  <path
    d="M276.2 81.5c-3.9 3.3-5.8 8.2-9.3 24.3-4.7 21.4-10.3 34-19.9 44.5-6.3 6.9-26.2 19.8-44.7 28.9-16 8-20.3 10.8-33.1 22-18.8 16.4-29.5 31.5-33.9 47.8a188 188 0 0 0 0 53 101.8 101.8 0 0 0 25 43.7c8 8.4 31.1 23.6 44.2 29.1l12 5c2.2.9 7.5 5.1 11.8 9.4 8.3 8.4 11.8 10.1 14.5 7.4 1.3-1.3 1.6-3.2 1.4-8.4-1.7-44.5-1.7-44.7-3.5-47.4a54 54 0 0 0-13.9-8.9c-18.3-9.5-24.6-17-29.5-34.9-2.4-9-2.5-33.1 0-41.1 3.5-11.5 12.1-20.2 30.1-30.2 4.6-2.6 12.6-7.9 17.7-11.8 5.2-3.9 11-7.8 12.9-8.6 3.2-1.4 3.5-1.4 5.1.6 1.6 1.9 1.7 5.8 1.2 48.4-.4 36.8-.2 52 1.2 74.7 2.5 40.4 3 77.5 1.5 94.2-1.4 15.3-1 18.5 2.4 19.8 8.9 3.3 21.6-9.9 27-28 2-6.9 2-12.1-.1-19-1.6-5-1.8-12.7-1.8-83 0-70.6-.2-78.6-1.9-89.5-1.6-10.6-1.8-16.3-1.4-48 .6-40.9-.5-85.2-2.2-90.7-1.8-6.2-7.6-7.7-12.8-3.3zm38.8 79c-1.5 1.8-1.5 3.9-.6 29.5.5 12 1.2 19.9 2.2 22.6 1.8 5.2 6.7 9.7 18.1 16.8a59.2 59.2 0 0 1 24.1 26.4l4.6 9.3.2 11.6c.1 14.5.2 14.6 12.5 13.7 13.5-1 17.2 1.1 25.7 14.8 4.5 7.2 7.5 9.2 13.7 9.3h5l2.5-5c2.4-4.8 2.5-5.7 2.4-24 0-16.2-.3-20.3-2.2-28a124.2 124.2 0 0 0-29.5-51.2c-6.1-6.4-17.9-14.1-40.2-26.3-9.3-5-19.7-11.1-23-13.5a45.2 45.2 0 0 0-13.3-7.5c-.5 0-1.5.7-2.2 1.5zm59.4 161.4c-1.7 1-4.1 3.5-5.3 5.4a472.9 472.9 0 0 1-27.6 28.5c-21.5 21.1-26 26-28.1 30.7-3.1 6.8-2.4 9.8 3.1 12.1 10.9 4.5 20.8-.9 44.4-24.7 14.6-14.6 16.3-15.9 21.1-15.9 5.1 0 8.4 2.4 17.9 13.3a107.7 107.7 0 0 0 25 23.2c9.1 5.4 23.5 8.1 29.5 5.3 6.6-3 3.6-8.8-11.8-23.1-13-12-37.1-36-47.5-47.1-8.8-9.5-14.4-11.5-20.7-7.7z" />
  <path
    d="M378.3 386.8c-1.1.2-10.5 8.8-21 19.3a417.3 417.3 0 0 1-25.3 24.2 94.1 94.1 0 0 0-19.6 19.1c-3.6 4.8-4.4 6.6-4.4 10.1 0 6.7 1.8 7.8 11.2 7.3a32 32 0 0 0 15.1-4.1c6.5-3.2 9.6-5.9 24.3-20.8 9.3-9.4 18.3-17.7 20.1-18.5 5-2.2 8.4-.3 16 8.9 17.8 21.6 33.7 32.5 49 33.5 9.1.6 12.3-1 12.3-6.2 0-4.9-3.8-9.5-19.6-23.6a828 828 0 0 1-29.9-28.6c-19.2-19.4-22.1-21.6-28.2-20.6z" />
</svg>