<svg xmlns="http://www.w3.org/2000/svg" version="1.0" viewBox="0 0 560 560">
  <path
    d="M380.2 115.2c-1.8 1.8-1.4 8.4.9 15.8 3.5 11.2 8 33.1 8.8 43 2.1 23.5-4.1 49.9-16 69.3-11.9 19.2-25 33.1-36.9 39-6 3-7.1 3.2-17 3.2-9.8 0-10.9-.2-15.9-3-3.7-2-6.4-4.5-8.3-7.5-4.4-7-5.2-11.2-3.9-20.3 1.8-12-.1-14-18.2-19.3-22-6.3-45.3-8-60.7-4.4-18 4.3-43.4 19.8-57.1 34.9a83.3 83.3 0 0 0-16.4 30.6 53.5 53.5 0 0 0 .4 26.5c4.1 10.6 19.5 28.1 28.5 32 7.3 3.3 23 4.4 36.9 2.7 19-2.4 21.1-1 20.1 14.1-.8 10.6.9 17.9 6.7 30 7.6 15.8 21.4 26.2 36 27 5.7.4 7.4 0 12.5-2.4a50.8 50.8 0 0 0 19.3-17.8c3.6-7.3 3.1-8.9-6-17.5a135.4 135.4 0 0 1-12.7-13.6c-2.6-3.3-8.1-9.8-12.4-14.4a89.3 89.3 0 0 1-12.4-17.3c-7-13.2-7-13.2-29.4-13.9-20.1-.7-23.6-1.4-29.7-5.8-9.4-6.8-10.8-18.7-3.8-32.7a57.5 57.5 0 0 1 20.2-22.6c14.6-7.9 35.3-8.3 39.4-.7 1.6 3.1.4 7.4-4.2 15.2a38.5 38.5 0 0 0-4.7 10.9c-.5 3.7-.2 4.2 4.8 8.9 7.9 7.4 21.9 16.4 29.5 18.9 8 2.6 24.8 4.1 33.9 3 3.4-.4 8.1-1.7 10.5-2.9 3.9-2 42.1-37.4 42.1-39 0-.4 2-2.8 4.5-5.4 4.1-4.3 4.8-4.7 9.4-4.7 2.7 0 6.5.7 8.4 1.5 7.7 3.2 12.9 1 17.1-7.3 1.3-2.6 4.9-8.7 8-13.6 9.7-15.4 10.6-20.8 9.1-54.7-1-22.4-4.9-37.7-14.8-57.4-10.3-20.8-21.8-33-26.5-28.3z" />
  <path
    d="M202 135c-8.3 1-15.1 3.7-22.6 8.6a188.1 188.1 0 0 0-33.8 34.1 268 268 0 0 0-22 43.8l-7 19.6a96.1 96.1 0 0 0-6.4 34.1c.3 6.6.5 7.3 2.5 7.6 2.6.4 10.4-8.7 23.6-27.7 14.8-21.3 17.9-25.1 26.3-32.5 11.9-10.5 29.7-20 45.4-24.3 9.3-2.6 44.4-2.5 58 0a74 74 0 0 1 52.7 34.4c6.8 10.3 8.8 12.3 12.4 12.3 5.4 0 19.5-16.9 23.9-28.7a81.5 81.5 0 0 0 3.7-28.8c-1.1-11.6-3.2-16.3-10.5-23.5a68.6 68.6 0 0 0-21.5-14c-14.7-7.5-14.8-7.5-22.5-7.4-8.1.1-13 1.5-30.2 8.8-14.1 5.9-20 4.9-32.2-5.6a72 72 0 0 0-12.6-9A65 65 0 0 0 202 135zm234.8 112.7c-.9 1-3.4 5.9-5.6 10.8-2.2 5-6.5 14.1-9.7 20.3-5 9.9-5.7 12-5.8 17.3 0 5.1.4 6.6 2.9 10.2 1.6 2.3 5.1 5.5 7.8 7.1 4.5 2.8 5 2.9 7.4 1.5 2.1-1.1 3-2.7 3.9-6.9l3.9-17c3.7-15.4 4.4-32.3 1.7-39.5-2-5.4-4-6.6-6.5-3.8zm-60.5 58.6c-1.1.7-8.6 8-16.6 16.3-8 8.2-19.2 19-24.9 23.9-15.8 13.7-24.5 22.6-25.2 26.2-1.5 6.7 4.1 11.9 12.5 11.7 10.3-.4 19.8-7 41.4-29.1 12.8-13 13.2-13.3 17.4-13.3 2.3 0 5.2.5 6.4 1.2 1.2.6 9.4 8.4 18.2 17.3 17.9 18.2 22.5 21.2 36.8 24.1 23.6 4.8 20.4-6.4-9.1-32.5a589 589 0 0 1-29.2-28.2c-7.9-8.3-15.8-16-17.5-17a9.5 9.5 0 0 0-10.2-.6z" />
  <path
    d="M377.5 371.6c-1.6.8-9.6 8.4-17.7 16.9-8.2 8.4-19 18.6-24.1 22.6-11 8.7-23.3 20.4-25.3 24.1-4.9 9.3 5.2 17.6 17.6 14.4 9.7-2.5 17.3-8.8 41.4-34.4 4.3-4.6 9-8.8 10.3-9.3 3.8-1.4 8.3 1.3 14.3 8.8 18.9 23.5 37.5 36.3 53 36.3 6.3 0 10.5-3 9.5-6.9-1.4-5.8-6.1-11.4-19.2-23.2a888 888 0 0 1-31.5-30.2 163.4 163.4 0 0 0-21.2-19.2c-4.2-1.8-3.5-1.8-7.1.1z" />
</svg>