<svg xmlns="http://www.w3.org/2000/svg" version="1.0" viewBox="0 0 478 368">
  <path
    d="M119.7 2.4a50.2 50.2 0 0 0-18.9 12.9A56.2 56.2 0 0 0 89 36.1c0 1.8-1.6 1.9-40 1.9-49.9 0-49-.3-49 13.4 0 7.1 1.4 9.7 6.6 11.6 1.5.6 19.4 1 42.5 1 36.7 0 39.9.1 39.9 1.7a52.7 52.7 0 0 0 87.3 22.1 59.1 59.1 0 0 0 13-21.8l.5-2h139.5c86.8 0 140.5-.4 142.1-1 5.2-1.9 6.6-4.5 6.6-11.6 0-7.2-.9-9.7-4.3-11.6-1.7-1-31.6-1.4-143-1.8l-140.9-.5-1.8-5.2a50.4 50.4 0 0 0-30.3-30.1c-4.9-1.9-7.9-2.2-19-2.2-11.6 0-13.9.3-19 2.4zM149.6 27a27.2 27.2 0 0 1 15.7 24c-.1 18.6-20.6 31.6-37.1 23.4a25.8 25.8 0 0 1 .8-47.3c6-2.8 15-2.8 20.6-.1zm203.7 106.4c-9 2.2-16.4 6.5-24 14.2a52.4 52.4 0 0 0-13.7 21.6c-.5 1.7-8.7 1.8-153.1 1.8-164.5 0-157.1-.2-160.9 5.1-2.2 3.1-2.2 12.7 0 15.8 3.8 5.3-3.6 5.1 160.9 5.1 144.4 0 152.6.1 153.1 1.7a56 56 0 0 0 13.8 21.8 49.8 49.8 0 0 0 58.6 10.2 58.8 58.8 0 0 0 25.1-25.9l3.4-7.8h25.8c27.7 0 30.8-.5 34.2-5.4 2.1-2.8 2-12.5-.1-15.5-3.3-4.6-6.5-5.1-34.1-5.1h-25.8l-3.5-7.7a54.6 54.6 0 0 0-33.9-29.5c-7.7-2-18.5-2.1-25.8-.4zm26.2 28.1c17.3 10.1 16.3 36.9-1.6 45.8a22.6 22.6 0 0 1-12.1 2.7c-10.9 0-18.4-4.2-23.2-13-5-9.2-4.5-19 1.3-28.2 7-11 23.6-14.4 35.6-7.3zM198 266.6a49.3 49.3 0 0 0-23.6 13.9 56.4 56.4 0 0 0-13.8 21.7c-.5 1.7-5 1.8-75.6 1.8-80.7 0-79.7-.1-83.4 5.1-2.2 3.1-2.2 12.7 0 15.8 3.7 5.2 2.7 5.1 83.4 5.1 70.6 0 75.1.1 75.6 1.7a58.5 58.5 0 0 0 27.9 32.4l7 3.4h30l7-3.4c10.3-5 21-16.1 25.6-26.3l3.4-7.8h103.3c111.2 0 107.9.2 111.6-5.1 2.2-3.1 2.2-12.7 0-15.8-3.7-5.3-.4-5.1-111.6-5.1H261.5l-3.5-7.8a58.8 58.8 0 0 0-25-26 51.6 51.6 0 0 0-35-3.6zm22.7 25.9c5.9 2.5 9.6 5.9 12.7 11.5a26 26 0 0 1-23 39.3 26.2 26.2 0 0 1-22.8-39.3c2.8-5.2 7.1-9.1 12.6-11.5a37.6 37.6 0 0 1 20.5 0z" />
</svg>