<svg xmlns="http://www.w3.org/2000/svg" version="1.0" viewBox="0 0 256 256">
  <path
    d="M121.6 21.2a43 43 0 0 0-2.1 12.3c-1 16.1-7.3 35.6-15.8 49a116 116 0 0 1-20 22.3c-12.6 10.2-23.9 14.5-46 17.8-4.6.6-6.7 3.9-4.9 7.8.8 1.8 2.2 2.6 4.9 3 22.1 3.3 33.4 7.6 46 17.8 6.6 5.4 16.7 16.8 20.2 22.8 9.6 16.5 14.5 32 15.7 48.9.7 11.3 2.1 14.1 6.8 14.1 3.9 0 4.8-2.4 6.1-15.3a114 114 0 0 1 15.8-48.2c5.8-9.3 25-28.5 28.5-28.5a80.7 80.7 0 0 1 33.6-11c5.1 0 8.5-1.6 9.2-4.4.9-3.8-1.1-6.4-5.4-7.1-22-3.1-33.3-7.5-45.9-17.7a101.1 101.1 0 0 1-35.8-70.5 52.8 52.8 0 0 0-2.5-13.8c-1.9-2.3-6.7-1.9-8.4.7z" />
</svg>