<svg xmlns="http://www.w3.org/2000/svg" version="1.0" viewBox="0 0 128 128">
  <path d="M52.9 15.6c-3.8.7-6 3.6-7 9-.5 2.6-1.5 5.5-2.3 6.3-.7.9-2.5 5.1-3.9 9.3-2.3 7-3.3 8.5-10 15-9.4 9.3-13 16.3-13.5 26.4l-.4 7.2 5.3 4.2c8 6.4 13 8.3 20.1 7.8l5.9-.4 7.1 6 7.2 6 9.1.4c11.9.5 29.5-1.3 31.5-3.4 1.1-1.1 1.5-3.5 1.4-8.7a28.6 28.6 0 0 0-17.7-27.2l-4.8-2.3 3.4-2.6c1.8-1.4 6.3-4.1 9.8-5.9 3.5-1.8 7-4.4 7.7-5.8 3.3-6.1-2-20.1-11.4-30a33.9 33.9 0 0 0-26.3-11.4c-4.7-.2-9.8-.1-11.2.1zm19.8 8.6c4.2 1.5 7.4 3.7 11.4 7.8A52.3 52.3 0 0 1 96 51.6c0 .6-1.9 2.3-4.2 3.7l-4.3 2.5-1.7-5.8c-3.5-11.4-13.2-18.9-27.5-21.3-6.2-1-6.4-1.1-5.8-3.6a7.9 7.9 0 0 1 2.2-3.9c2.6-1.9 11.6-1.4 18 1zm-7.5 12c2.2.6 6.2 3.1 8.9 5.5 4.9 4.5 10.5 14.2 9.6 16.6-.3.7-3.5 3.3-7.1 5.8-6.4 4.2-6.6 4.5-6.4 8.2.3 3.8.4 3.9 6.8 6 7.2 2.4 11.1 5 14.6 9.9 3.1 4.2 5.7 11 5.2 13.9-.3 2.2-.9 2.5-6.8 3-3.6.4-10.5.7-15.3.8l-8.9.1-6.6-6C48.5 90.4 41 87.5 41 93c0 1.7-.4 2-2.2 1.5a66.8 66.8 0 0 1-16.5-11.1c-.6-1.7 3.8-11.3 7.9-17 1.8-2.5 5.4-6.1 8-8 4.4-3.3 4.9-4.2 8-13.4l3.2-10h5.9c3.3 0 7.8.5 9.9 1.2z"/>
</svg>