<svg xmlns="http://www.w3.org/2000/svg" version="1.0" viewBox="0 0 512 512">
  <path
    d="M166.1 63a435.9 435.9 0 0 0-78.9 25.1l-10.4 4.3-7.9 12.9C32.5 163.9 11.7 219.4 2.9 282a343.4 343.4 0 0 0-2.6 49.9C0 350.8.1 371 .5 376.7l.7 10.4 10.6 7.4c14.8 10.2 38 24 54.7 32.3 22.9 11.4 62.3 26.3 65.9 24.9 1.9-.8 14.2-19.3 22.2-33.5 4.2-7.5 5.5-10.8 4.8-11.9-.5-.8-5.1-3.2-10.2-5.3-5.2-2.2-14.3-6.5-20.3-9.7l-11-5.7 3.8-3.3c2.1-1.8 4.3-3.2 4.9-3.3.6 0 5.1 1.8 10.1 3.9a385 385 0 0 0 51.3 16.5c27.2 6 48.9 8.1 76.9 7.3 38.8-1.1 70.7-7.9 107.9-22.9 11.5-4.6 12.4-4.9 14.5-3.4 5.1 3.6 6.1 4.6 5.1 5.5a250 250 0 0 1-31.1 15.6c-6.4 2.6-9.3 4.3-9.3 5.4 0 2.3 10.8 21.5 19.3 34.3 5.5 8.2 7.7 10.8 9.4 10.8 3 0 26.1-8.1 41.7-14.7 26-11 54.6-26.7 77.7-42.8l10.7-7.4.7-11.4c1.2-18.8-.1-77.6-1.9-90.7a437.3 437.3 0 0 0-68.2-182.4l-6.8-10.4-14.6-6c-17.9-7.5-37.3-14-55-18.5a209.7 209.7 0 0 0-37.3-7.4c-.7.3-4.3 6.4-7.8 13.7l-6.4 13.2-4-.6a347.4 347.4 0 0 0-54.5-3c-24.2 0-34.7.6-52 3l-4.5.6-6.6-13.4c-7.8-15.8-6-15-25.8-10.8zm22.2 166.3a50.5 50.5 0 0 1 27.7 46.5 52.5 52.5 0 0 1-28.7 46.5c-6.2 2.9-7.7 3.2-16.3 3.2-8.6 0-10.1-.3-16.3-3.2a53 53 0 0 1-27.2-58.8 50.6 50.6 0 0 1 32-36.8c3.7-1.3 7.1-1.7 13.2-1.4 7 .3 9.2.9 15.6 4zm164.5-2.5a49.6 49.6 0 0 1 33.2 48.8 50 50 0 0 1-33.3 48.6c-23.9 7.4-49.3-10.1-55.2-37.9-1.8-8.6-1.8-13 0-21.8a50.5 50.5 0 0 1 33-38.1 42.3 42.3 0 0 1 22.3.4z" />
</svg>