<svg xmlns="http://www.w3.org/2000/svg" version="1.0" viewBox="0 0 512 512">
  <path
    d="M280.5 2a110.3 110.3 0 0 0-73.9 58.7c-11.7 23.5-14.6 42-14.6 93.5V182h-69l-3.8 3.4-3.7 3.4-.3 46.1c-.2 40.9-.1 46.5 1.3 49.6 3.4 7 3.1 7 41.2 7.3l34.3.3.2 106.9.3 106.9 2.1 2.8 2.1 2.8 52.2.3 52.1.2 2-3.2c2-3.2 2-5.3 2-110V292.1l40.3-.3c43.6-.3 42.4-.2 46.5-6 1.5-2 1.7-7.3 2-46.8.2-29.8 0-45.7-.8-48.2a15 15 0 0 0-4.1-6.2l-3.1-2.6h-81l.4-29.8c.4-24.6.7-30.4 2.1-34 2.7-6.9 5.6-10.3 11.6-13.1 5.6-2.6 5.6-2.6 37.6-3.1 35.6-.6 35.6-.6 39-7.5 1.4-3.1 1.5-8.4 1.3-46.4l-.3-42.9-2.4-2.6-2.4-2.6-52.1.1c-47.7 0-52.7.2-59.1 1.9z" />
</svg>