<svg xmlns="http://www.w3.org/2000/svg" version="1.0" viewBox="0 0 512 512">
  <path
    d="M102.2 2.9c-26.3 7.9-46 19.7-64.3 38.7a137.3 137.3 0 0 0-35.3 62.1L0 112.9v286.2l2.6 9.2a137.3 137.3 0 0 0 35.3 62.1 138.9 138.9 0 0 0 65.8 39l9.2 2.6h286.2l9.2-2.6a138.9 138.9 0 0 0 65.8-39 137.3 137.3 0 0 0 35.3-62.1l2.6-9.2V112.9l-2.6-9.2a138.9 138.9 0 0 0-39-65.8 137.3 137.3 0 0 0-62.1-35.3L399.1 0 255.3.1 111.5.2l-9.3 2.7zm291.3 48a95.4 95.4 0 0 1 67.7 68.1l2.3 8.5v257l-2.3 8.5a95.3 95.3 0 0 1-68.2 68.2l-8.5 2.3h-257l-8.5-2.3A95.3 95.3 0 0 1 50.8 393l-2.3-8.5v-257l2.3-8.5a94 94 0 0 1 51.4-61.9c7.6-3.6 19.7-7.3 27.3-8.4 1.7-.2 59.9-.4 129.5-.3l126.5.2 8 2.3z" />
  <path
    d="M385.3 84a38 38 0 0 0-24.3 19.5c-2.2 4.3-2.5 6.3-2.5 15s.3 10.7 2.6 15.5a35.9 35.9 0 0 0 64.8 0c2.2-4.7 2.6-6.9 2.6-15 0-8.2-.4-10.3-2.7-15.2a39 39 0 0 0-17.1-17.4 45.2 45.2 0 0 0-23.4-2.4zm-152 39.5a149.2 149.2 0 0 0-28.9 8.3 136.7 136.7 0 0 0-75.2 79.7 112.4 112.4 0 0 0-6.7 44.5c0 20.4 1.2 28.2 6.7 44.5a136.3 136.3 0 0 0 82.3 82.3c16.3 5.5 24.1 6.7 44.5 6.7s28.2-1.2 44.5-6.7a136.3 136.3 0 0 0 82.3-82.3c5.5-16.3 6.7-24.1 6.7-44.5 0-14.1-.4-20.5-1.8-27a132 132 0 0 0-36.8-67.9 132.4 132.4 0 0 0-66.9-36.6 205.2 205.2 0 0 0-50.7-1zm45.2 52a84.2 84.2 0 0 1 58.1 58 59.8 59.8 0 0 1 2.7 22.5c0 11.8-.3 14.6-2.7 22.5a84.5 84.5 0 0 1-58.1 58.1 59.8 59.8 0 0 1-22.5 2.7c-11.8 0-14.6-.3-22.5-2.7a84.5 84.5 0 0 1-58.1-58.1 59.8 59.8 0 0 1-2.7-22.5c0-11.8.3-14.6 2.7-22.5a85.5 85.5 0 0 1 68-60.5c8.8-1.6 25.1-.4 35.1 2.5z" />
</svg>