<svg xmlns="http://www.w3.org/2000/svg" version="1.0" viewBox="0 0 512 512">
  <path
    d="M337.5 46.7a109 109 0 0 0-79.2 58.3c-9 17.7-13.1 42.6-10.3 62 .5 3.5.7 6.6.5 6.9A295.3 295.3 0 0 1 42.7 71.2c-6.3-7.7-8.1-7.8-11.9-.7-6.5 11.8-10.6 28-11.4 44.6a101.1 101.1 0 0 0 29.7 79.4c5 5.2 8.9 9.5 8.6 9.5-4.9 0-19.5-4.4-28.9-8.7-4.2-2-8.4-3.3-9.2-3-3.2 1.2-1.1 22.3 3.6 36.7 2.8 8.7 9 21.1 14.6 29a116 116 0 0 0 46.6 37.3l7.9 3.2-8.4.8c-5.3.5-11.9.4-17.6-.3-5.1-.6-9.7-.9-10.3-.5-1.7 1-1.2 3.9 2.1 11.6a108.5 108.5 0 0 0 77.9 63.6c4.7.9 9.2 1.7 10 2 2 .6-12.7 10-27 17.2a214.7 214.7 0 0 1-65 20.8 302 302 0 0 1-51.2 1C.2 414 0 414.2 0 417c0 3.7 3 5.7 24 16.4A284.4 284.4 0 0 0 160.5 466c31.7 0 54.1-2.6 81-9.5A278 278 0 0 0 375 378.4a306.8 306.8 0 0 0 86.7-204.7l.6-20.8 8.2-6.5c9.7-7.5 27.1-25.4 35.5-36.5 4.7-6.1 6-8.5 6-11.3 0-2-.3-3.6-.6-3.6s-6.2 2-13 4.5a244.7 244.7 0 0 1-33.8 9.5c-.5 0 2.3-2.9 6.2-6.5 11.8-11 22.1-25.9 27.2-39.8 2.3-6.1 2.1-8.7-.5-8.7-.8 0-7.5 2.9-14.8 6.5A193 193 0 0 1 441 76l-9.1 2.2-4.7-4.4A106.2 106.2 0 0 0 375 47.6c-7.7-1.5-29.6-2-37.5-.9z" />
</svg>