<svg xmlns="http://www.w3.org/2000/svg" version="1.0" viewBox="0 0 200 200">
    <path
        d="M8.9 24.5C.6 28.9 0 30.7 0 53c0 18 .1 19.5 2.2 22.7 5 8.1 20.4 10.9 30.3 5.5a20.4 20.4 0 0 0 10.3-18.7l-.3-5-7.1-.3-7.1-.3-.7 4a9 9 0 0 1-3.2 6c-3.3 2.6-4.5 2.6-7.8 0-2.5-2-2.6-2.3-2.6-13.9 0-11.6.1-11.9 2.6-13.9A9.1 9.1 0 0 1 21 37c2.6 0 6 4.3 6.7 8.4l.6 3.7 7.1-.3 7.1-.3.3-4.8c.4-6.9-3.3-14.7-8.9-18.4-3.7-2.4-5.4-2.8-12.3-3.1-7-.2-8.7.1-12.7 2.3zM64.1 23a20.1 20.1 0 0 0-10.7 10.4C51.2 38 51 39.8 51 53.1c0 14.1.1 14.9 2.8 20C57.5 80.4 64.2 84 73.9 84c9.5-.1 15.6-3.5 19.4-10.9 2.6-5.2 2.7-6.1 2.7-20 0-13.3-.2-15.1-2.4-19.8-3.7-7.8-8.7-10.7-19-11-4.5-.2-9.2.2-10.5.7zm13.6 16.2c2.2 2 2.3 2.9 2.3 13.9 0 11.5-.1 11.8-2.6 13.8-1.5 1.2-3.2 2.1-3.9 2.1-.7 0-2.4-.9-3.9-2.1-2.5-2-2.6-2.3-2.6-13.9 0-11.6.1-11.9 2.6-13.9 3.4-2.7 5.2-2.6 8.1.1zM104 52.9V84h14.3c13.7 0 14.6-.1 19.8-2.8 4.4-2.2 5.8-3.6 8.1-8.1 2.7-5.1 2.8-5.9 2.8-20 0-13.3-.2-15.1-2.4-19.8a19 19 0 0 0-6.7-8c-4.1-2.7-4.6-2.8-20.1-3.1l-15.8-.3v31zm26.4-13.8c2.5 2 2.6 2.3 2.6 13.9 0 11.6-.1 11.9-2.6 13.9a11 11 0 0 1-6.5 2.1H120V37h3.9c2.4 0 4.8.8 6.5 2.1zM157 53v31h43V69.1l-13.7-.3-13.8-.3-.3-3.7-.3-3.7 10.8-.3 10.8-.3v-15l-10.8-.3-10.8-.3.3-3.7.3-3.7 13.8-.3 13.7-.3V22h-43v31zM0 106v14h5.8c3.2 0 6.3-.5 7-1.2.7-.7 1.2-3.3 1.2-5.9v-4.8l5.3-.3 5.2-.3v-15l-12.2-.3L0 91.9V106zm34.2-12.8c-1.7 1.7-1.6 12.2.2 13.7.9.8 5.5 1.1 13.7.9l12.4-.3v-15L48 92.2c-8.9-.2-12.9.1-13.8 1zm35.2.1c-.3.8-.4 4.3-.2 7.8l.3 6.4h26v-15l-12.8-.3c-10.1-.2-12.8 0-13.3 1.1zm35 0c-.3.8-.4 4.3-.2 7.8l.3 6.4h26v-15l-12.8-.3c-10.1-.2-12.8 0-13.3 1.1zm35 .1c-.3.7-.4 4.2-.2 7.7l.3 6.4 12.4.3c8.2.2 12.8-.1 13.7-.9 1.8-1.4 1.9-12 .2-13.7-1.8-1.8-25.7-1.7-26.4.2zm36 0c-.3.7-.4 4.2-.2 7.7l.3 6.4 5.3.3 5.2.3v4.8c0 2.6.5 5.2 1.2 5.9.7.7 3.8 1.2 7 1.2h5.8V92h-12c-9.2 0-12.2.3-12.6 1.4zM33.7 121.8c-4.4 4.5-4.6 7-1.1 11.1l2.6 3.1-2.6 3.1c-3.6 4.2-3.3 6.8 1.2 11.2 4.6 4.5 6.9 4.6 10.7.7l2.8-2.9 3.4 2.9c4.3 3.8 6.4 3.8 10.8-.1 5.1-4.6 5.5-7.3 1.4-11.5l-3.3-3.4 3.3-3.4c4.1-4.2 3.7-6.9-1.4-11.5-4.4-3.9-6.5-3.9-10.8-.1l-3.4 2.9-2.8-2.9c-3.8-4-6.3-3.8-10.8.8zm52.2.1c-2.2 2.1-3.9 4.6-3.9 5.4 0 .9 1.4 3.2 3.1 5.2l3.1 3.5-3.1 3.5c-1.7 2-3.1 4.3-3.1 5.2 0 2.3 7.4 9.3 9.8 9.3 1.2 0 3.7-1.3 5.5-3l3.4-2.9 2.8 2.9c3.8 4 6.3 3.8 10.8-.8 4.4-4.5 4.6-7 1.1-11.1l-2.6-3.1 2.6-3.1c3.6-4.2 3.3-6.8-1.2-11.2-4.6-4.5-6.9-4.6-10.7-.7l-2.8 2.9-3.4-2.9c-4.5-4-6.8-3.8-11.4.9zm52.6-.8c-5.1 4.6-5.5 7.3-1.4 11.5l3.3 3.4-3.3 3.4c-4.1 4.2-3.7 6.9 1.4 11.5 4.4 3.9 6.5 3.9 10.8.1l3.4-2.9 2.8 2.9c3.8 4 6.3 3.8 10.8-.8 4.4-4.5 4.6-7 1.1-11.1l-2.6-3.1 2.6-3.1c3.6-4.2 3.3-6.8-1.2-11.2-4.6-4.5-6.9-4.6-10.7-.7l-2.8 2.9-3.4-2.9c-4.3-3.8-6.4-3.8-10.8.1zM0 135.5v7.6l6.8-.3 6.7-.3v-14l-6.7-.3-6.8-.3v7.6zm186.4-6.1c-.3.7-.4 4-.2 7.2l.3 5.9 6.8.3 6.7.3V128h-6.5c-4.6 0-6.7.4-7.1 1.4zM0 164.5V178h25v-15H14.1l-.3-5.8-.3-5.7-6.7-.3-6.8-.3v13.6zm186.7-12.8c-.4.3-.7 3-.7 6v5.3h-11v15h25v-27h-6.3c-3.5 0-6.7.3-7 .7zM33.4 164.3c-.3.8-.4 4.1-.2 7.3l.3 5.9h27v-14l-13.3-.3c-10.6-.2-13.3 0-13.8 1.1zm35.6 6.2v7.5h27v-15H69v7.5zm35 0v7.5h27v-15h-27v7.5zm35.4-6.2c-.3.8-.4 4.1-.2 7.3l.3 5.9h27v-14l-13.3-.3c-10.6-.2-13.3 0-13.8 1.1z" />
</svg>