<svg xmlns="http://www.w3.org/2000/svg" version="1.0" viewBox="0 0 534 668">
    <path
        d="M136.7 1.1a85.3 85.3 0 0 0-27.2 14.6 82.5 82.5 0 0 0-26.2 39.8c-1.7 5.7-1.8 17.8-2.1 232-.2 154.3.1 228.2.8 233a82.2 82.2 0 0 0 8.3 25.5 80.3 80.3 0 0 0 52.7 39c4.6.7 54.9 1 169.5.8 155.4-.3 163.3-.4 168.4-2.1a80.4 80.4 0 0 0 51.5-50.6c1.5-5 1.6-27.3 1.6-241l-.1-235.6-2.2-6.5a78.5 78.5 0 0 0-42.9-45.8L480.5.5l-170-.2c-97.8 0-171.6.3-173.8.8zm332.9 55.4c3 1.9 6 4.9 7.9 7.9l3 4.9.3 221.6c.2 201.7.1 222-1.4 225.9-1.9 5-6 9.4-11.8 12.5l-4.1 2.2h-155c-149.3 0-155.1-.1-158.5-1.9a26.9 26.9 0 0 1-11.3-11.1l-2.2-4v-444l2.3-4.6a24.8 24.8 0 0 1 14.9-11.8c2.2-.5 67.9-.8 157.4-.8l153.6.2 4.9 3z" />
    <path
        d="M39.4 90.4a78 78 0 0 0-35.2 37.3l-3.7 7.8L.2 335c-.2 149.5 0 201.3.9 206.5a169.2 169.2 0 0 0 24.2 58.2c18.5 28 48.8 51.1 80.9 61.7 21 7 11.9 6.7 158.8 6.4l132.5-.3 7.7-3.3a77.8 77.8 0 0 0 31.5-24.5c5.6-7.2 11.5-19 11.1-22l-.3-2.2-152.5-.6c-108.7-.4-153.8-.8-157.1-1.7a108.7 108.7 0 0 1-81.7-78l-2.7-9.7L53 306l-.5-219.5-2.1-.3c-1.1-.2-6 1.7-11 4.2z" />
</svg>