<svg xmlns="http://www.w3.org/2000/svg" version="1.0" viewBox="0 0 512 512">
    <path
        d="M289.5 1.2c-3.6 2-8.6 7.2-10.8 11.3-2.6 5-2.7 14.3-.3 20 1.2 2.8 11.7 14 34.6 37l32.9 33-76.7 77c-44 44.1-79 80-81.9 84-17.3 23.8-17.3 42.1-.1 59.3 17.7 17.8 37.2 17.1 61.4-1.9 4.4-3.4 41.9-40.1 83.4-81.5l75.5-75.3 33.5 33.4c23.4 23.3 34.7 33.9 37.5 35.1 5.6 2.4 15 2.2 20-.4 2.2-1.1 5.4-3.5 7.2-5.4 6.7-6.9 6.3-1 6.3-105.5V26.5l-2.9-6.2a40 40 0 0 0-17-17.7l-5-2.6h-97.8c-69.3.1-98.4.4-99.8 1.2z" />
    <path
        d="M53 62.7a65.8 65.8 0 0 0-50.8 41.6L0 110.1v354.8l2.1 5.7a66 66 0 0 0 42.8 39.8c4.9 1.4 23.3 1.6 178.6 1.6 156.3 0 173.7-.2 178.6-1.6a65.5 65.5 0 0 0 39.7-32.7c7-14.4 6.6-9.9 7-86.2l.3-68.9-32.3-32.3a693.7 693.7 0 0 0-33.5-32.3c-1 0-1.3 19.5-1.5 93.7l-.3 93.8h-316v-316l93.8-.3c74.2-.2 93.7-.5 93.7-1.5 0-.6-14.5-15.7-32.3-33.5L188.5 62l-66.5.1c-36.6.1-67.6.4-69 .6z" />
</svg>