<svg xmlns="http://www.w3.org/2000/svg" version="1.0" viewBox="0 0 128 128">
  <path d="M49.4 19.5c-4.9 2.4-12.9 7.5-17.8 11.2C13.9 44.2 13.1 47 21 70.1c9.9 29 11.5 31.4 26.7 38.7 7.1 3.4 8.6 3.7 16.3 3.7 7.8 0 9.2-.3 16.4-3.8 15.1-7.2 16.2-8.8 26.2-37.4a71 71 0 0 0 5.4-20.9c0-5.4-.1-5.7-5.7-11.3a118.5 118.5 0 0 0-28.7-20.2c-11.3-5.5-16.3-5.4-28.2.6zm24 6c10.3 5.3 20 12.2 27.3 19.7l5.2 5.3-5.3 15-7.5 20.7c-3.3 8.6-10.5 14.3-23.8 18.9-5.1 1.7-5.5 1.7-10.6 0-14.5-5-20.4-10.1-24.7-21.4C28.8 70.2 23 52.9 23 51c0-1.9 10-11.7 17.7-17.3C45.3 30.3 62.5 21 64 21c.3 0 4.6 2 9.4 4.5z"/>
  <path d="M55.4 34.8a82.4 82.4 0 0 0-20.3 14.6L31.6 53l2.3 7.3c4.2 13.1 9.2 25.2 11.4 27.5A52.6 52.6 0 0 0 64 97c3.1 0 16-6.3 18.7-9.2 2.2-2.3 7.2-14.4 11.4-27.5l2.3-7.3-3.5-3.6c-6.4-6.7-25-18.5-29.1-18.4-.7 0-4.5 1.7-8.4 3.8zm20.1 5.4a90 90 0 0 1 12.2 9.1l5.2 4.9-4.4 12.2C82 84.9 81.1 86.3 73.9 89.9c-7.9 3.9-11.9 3.9-19.8 0-7.2-3.6-8.1-5-14.6-23.4l-4.4-12.2 4.7-4.6a84.2 84.2 0 0 1 19.5-13.3c4.4-1.9 7.9-1.1 16.2 3.8z"/>
</svg>